{
	"patcher" : 	{
		"fileversion" : 1,
		"appversion" : 		{
			"major" : 7,
			"minor" : 1,
			"revision" : 0,
			"architecture" : "x64",
			"modernui" : 1
		}
,
		"rect" : [ 995.0, 97.0, 890.0, 944.0 ],
		"bglocked" : 0,
		"openinpresentation" : 0,
		"default_fontsize" : 12.0,
		"default_fontface" : 0,
		"default_fontname" : "Arial",
		"gridonopen" : 1,
		"gridsize" : [ 15.0, 15.0 ],
		"gridsnaponopen" : 1,
		"objectsnaponopen" : 1,
		"statusbarvisible" : 2,
		"toolbarvisible" : 1,
		"lefttoolbarpinned" : 0,
		"toptoolbarpinned" : 0,
		"righttoolbarpinned" : 0,
		"bottomtoolbarpinned" : 0,
		"toolbars_unpinned_last_save" : 8,
		"tallnewobj" : 0,
		"boxanimatetime" : 200,
		"enablehscroll" : 1,
		"enablevscroll" : 1,
		"devicewidth" : 0.0,
		"description" : "",
		"digest" : "",
		"tags" : "",
		"style" : "",
		"subpatcher_template" : "",
		"boxes" : [ 			{
				"box" : 				{
					"id" : "obj-15",
					"maxclass" : "preset",
					"numinlets" : 1,
					"numoutlets" : 4,
					"outlettype" : [ "preset", "int", "preset", "int" ],
					"patching_rect" : [ 1592.932739, 405.153748, 100.0, 40.0 ],
					"preset_data" : [ 						{
							"number" : 17,
							"data" : [ 4, "obj-12", "function", "clear", 7, "obj-12", "function", "add", 0.0, 0.646405, 0, 7, "obj-12", "function", "add", 105.667114, 1.0, 0, 7, "obj-12", "function", "add", 4703.8814, 0.916993, 0, 7, "obj-12", "function", "add", 5000.0, 0.0, 0, 5, "obj-12", "function", "domain", 5000.0, 6, "obj-12", "function", "range", 0.0, 1.0, 5, "obj-12", "function", "mode", 0, 5, "obj-5", "number~", "list", 0.0, 5, "obj-24", "flonum", "float", 3.0, 5, "obj-27", "flonum", "float", 5.0, 6, "obj-28", "gain~", "list", 82, 10.0, 6, "obj-185", "textedit", "set", "synth", "guitar", 4, "obj-112", "function", "clear", 7, "obj-112", "function", "add", 0.0, 0.0, 0, 7, "obj-112", "function", "add", 23.82279, 1.0, 0, 7, "obj-112", "function", "add", 1876.501362, 0.213271, 0, 7, "obj-112", "function", "add", 3885.429933, 0.025035, 0, 7, "obj-112", "function", "add", 5000.0, 0.0, 0, 5, "obj-112", "function", "domain", 5000.0, 6, "obj-112", "function", "range", 0.0, 1.0, 5, "obj-112", "function", "mode", 0, 5, "obj-170", "flonum", "float", 48.0, 5, "obj-167", "flonum", "float", 130.81279, 5, "obj-63", "number~", "list", 0.0, 5, "obj-98", "number~", "list", 0.0, 5, "obj-101", "flonum", "float", 100.0, 5, "obj-103", "number", "int", 48, 5, "obj-104", "number", "int", 3, 5, "obj-107", "number", "int", 0, 5, "obj-108", "flonum", "float", 50.0, 5, "obj-119", "flonum", "float", 1.005, 5, "obj-120", "flonum", "float", 0.0, 5, "obj-145", "flonum", "float", 5000.0, 5, "obj-148", "flonum", "float", 5000.0, 5, "obj-162", "number~", "list", 0.0, 5, "obj-35", "number", "int", 0, 5, "obj-41", "number", "int", 5000, 5, "obj-50", "number", "int", 3, 5, "obj-80", "umenu", "int", 1, 5, "obj-59", "flonum", "float", 5000.0, 4, "obj-96", "function", "clear", 7, "obj-96", "function", "add", 0.0, 7.5, 0, 7, "obj-96", "function", "add", 2706.421875, 1.875, 0, 7, "obj-96", "function", "add", 4999.999512, 0.0, 0, 5, "obj-96", "function", "domain", 5000.0, 6, "obj-96", "function", "range", 0.0, 24.0, 5, "obj-96", "function", "mode", 0, 5, "obj-97", "number", "int", 0, 5, "obj-109", "toggle", "int", 0, 5, "obj-67", "flonum", "float", 0.0, 5, "obj-126", "number", "int", 0 ]
						}
, 						{
							"number" : 18,
							"data" : [ 4, "obj-12", "function", "clear", 7, "obj-12", "function", "add", 0.0, 0.669934, 0, 7, "obj-12", "function", "add", 24.524798, 1.0, 0, 7, "obj-12", "function", "add", 383.453369, 0.799346, 0, 7, "obj-12", "function", "add", 400.0, 0.0, 0, 5, "obj-12", "function", "domain", 400.0, 6, "obj-12", "function", "range", 0.0, 1.0, 5, "obj-12", "function", "mode", 0, 5, "obj-5", "number~", "list", 0.0, 5, "obj-24", "flonum", "float", 3.0, 5, "obj-27", "flonum", "float", 5.0, 6, "obj-28", "gain~", "list", 114, 10.0, 6, "obj-185", "textedit", "set", "synth", "trumpet", 4, "obj-112", "function", "clear", 7, "obj-112", "function", "add", 0.0, 0.0, 0, 7, "obj-112", "function", "add", 51.905823, 0.895624, 0, 7, "obj-112", "function", "add", 107.262966, 0.707388, 0, 7, "obj-112", "function", "add", 328.691537, 0.683859, 0, 7, "obj-112", "function", "add", 400.0, 0.0, 0, 5, "obj-112", "function", "domain", 400.0, 6, "obj-112", "function", "range", 0.0, 1.0, 5, "obj-112", "function", "mode", 0, 5, "obj-170", "flonum", "float", 67.0, 5, "obj-167", "flonum", "float", 391.995422, 5, "obj-63", "number~", "list", 0.0, 5, "obj-98", "number~", "list", 0.0, 5, "obj-101", "flonum", "float", 5000.0, 5, "obj-103", "number", "int", 67, 5, "obj-104", "number", "int", 3, 5, "obj-107", "number", "int", 0, 5, "obj-108", "flonum", "float", 50.0, 5, "obj-119", "flonum", "float", 1.005, 5, "obj-120", "flonum", "float", 0.0, 5, "obj-145", "flonum", "float", 400.0, 5, "obj-148", "flonum", "float", 400.0, 5, "obj-162", "number~", "list", 0.0, 5, "obj-35", "number", "int", 0, 5, "obj-41", "number", "int", 400, 5, "obj-50", "number", "int", 3, 5, "obj-80", "umenu", "int", 1, 5, "obj-59", "flonum", "float", 400.0, 4, "obj-96", "function", "clear", 7, "obj-96", "function", "add", 0.0, 0.0, 0, 7, "obj-96", "function", "add", 55.596731, 6.024973, 0, 7, "obj-96", "function", "add", 85.070415, 4.476586, 0, 7, "obj-96", "function", "add", 299.807257, 0.605618, 0, 7, "obj-96", "function", "add", 399.999961, 0.0, 0, 5, "obj-96", "function", "domain", 400.0, 6, "obj-96", "function", "range", 0.0, 24.0, 5, "obj-96", "function", "mode", 0, 5, "obj-97", "number", "int", 0, 5, "obj-109", "toggle", "int", 0, 5, "obj-67", "flonum", "float", 0.0, 5, "obj-126", "number", "int", 0 ]
						}
, 						{
							"number" : 19,
							"data" : [ 4, "obj-12", "function", "clear", 7, "obj-12", "function", "add", 0.0, 0.669934, 0, 7, "obj-12", "function", "add", 45.983996, 1.0, 0, 7, "obj-12", "function", "add", 718.975067, 0.799346, 0, 7, "obj-12", "function", "add", 750.0, 0.0, 0, 5, "obj-12", "function", "domain", 750.0, 6, "obj-12", "function", "range", 0.0, 1.0, 5, "obj-12", "function", "mode", 0, 5, "obj-5", "number~", "list", 0.0, 5, "obj-24", "flonum", "float", 3.0, 5, "obj-27", "flonum", "float", 5.0, 6, "obj-28", "gain~", "list", 102, 10.0, 5, "obj-185", "textedit", "set", "saw-blade", 4, "obj-112", "function", "clear", 7, "obj-112", "function", "add", 0.0, 0.0, 0, 7, "obj-112", "function", "add", 97.323418, 0.895624, 0, 7, "obj-112", "function", "add", 201.118061, 0.707388, 0, 7, "obj-112", "function", "add", 616.296632, 0.683859, 0, 7, "obj-112", "function", "add", 750.0, 0.0, 0, 5, "obj-112", "function", "domain", 750.0, 6, "obj-112", "function", "range", 0.0, 1.0, 5, "obj-112", "function", "mode", 0, 5, "obj-170", "flonum", "float", 48.0, 5, "obj-167", "flonum", "float", 130.81279, 5, "obj-63", "number~", "list", 0.0, 5, "obj-98", "number~", "list", 0.0, 5, "obj-101", "flonum", "float", 5000.0, 5, "obj-103", "number", "int", 48, 5, "obj-104", "number", "int", 4, 5, "obj-107", "number", "int", 0, 5, "obj-108", "flonum", "float", 50.0, 5, "obj-119", "flonum", "float", 1.5, 5, "obj-120", "flonum", "float", 0.0, 5, "obj-145", "flonum", "float", 750.0, 5, "obj-148", "flonum", "float", 750.0, 5, "obj-162", "number~", "list", 0.0, 5, "obj-35", "number", "int", 0, 5, "obj-41", "number", "int", 750, 5, "obj-50", "number", "int", 4, 5, "obj-80", "umenu", "int", 1, 5, "obj-59", "flonum", "float", 750.0, 4, "obj-96", "function", "clear", 7, "obj-96", "function", "add", 0.0, 0.0, 0, 7, "obj-96", "function", "add", 14.441238, 3.543386, 0, 7, "obj-96", "function", "add", 101.283343, 0.0, 0, 7, "obj-96", "function", "add", 697.335975, 0.833709, 0, 7, "obj-96", "function", "add", 749.999927, 0.0, 0, 5, "obj-96", "function", "domain", 750.0, 6, "obj-96", "function", "range", 0.0, 24.0, 5, "obj-96", "function", "mode", 0, 5, "obj-97", "number", "int", 0, 5, "obj-109", "toggle", "int", 0, 5, "obj-67", "flonum", "float", 0.0, 5, "obj-126", "number", "int", 0 ]
						}
, 						{
							"number" : 20,
							"data" : [ 4, "obj-12", "function", "clear", 7, "obj-12", "function", "add", 0.0, 0.791138, 0, 7, "obj-12", "function", "add", 45.983996, 1.0, 0, 7, "obj-12", "function", "add", 45.983996, 0.0, 0, 7, "obj-12", "function", "add", 373.529026, 0.849962, 0, 7, "obj-12", "function", "add", 721.743311, 0.826433, 0, 7, "obj-12", "function", "add", 750.0, 0.0, 0, 5, "obj-12", "function", "domain", 750.0, 6, "obj-12", "function", "range", 0.0, 1.0, 5, "obj-12", "function", "mode", 0, 5, "obj-5", "number~", "list", 0.0, 5, "obj-24", "flonum", "float", 3.0, 5, "obj-27", "flonum", "float", 5.0, 6, "obj-28", "gain~", "list", 102, 10.0, 6, "obj-185", "textedit", "set", "rect-blade", "puke", 4, "obj-112", "function", "clear", 7, "obj-112", "function", "add", 0.0, 0.0, 0, 7, "obj-112", "function", "add", 97.323418, 0.895624, 0, 7, "obj-112", "function", "add", 201.118061, 0.707388, 0, 7, "obj-112", "function", "add", 616.296632, 0.683859, 0, 7, "obj-112", "function", "add", 750.0, 0.0, 0, 5, "obj-112", "function", "domain", 750.0, 6, "obj-112", "function", "range", 0.0, 1.0, 5, "obj-112", "function", "mode", 0, 5, "obj-170", "flonum", "float", 48.0, 5, "obj-167", "flonum", "float", 130.81279, 5, "obj-63", "number~", "list", 0.0, 5, "obj-98", "number~", "list", 0.0, 5, "obj-101", "flonum", "float", 2000.0, 5, "obj-103", "number", "int", 48, 5, "obj-104", "number", "int", 6, 5, "obj-107", "number", "int", 0, 5, "obj-108", "flonum", "float", 100.0, 5, "obj-119", "flonum", "float", 1.5, 5, "obj-120", "flonum", "float", 0.0, 5, "obj-145", "flonum", "float", 750.0, 5, "obj-148", "flonum", "float", 750.0, 5, "obj-162", "number~", "list", 0.0, 5, "obj-35", "number", "int", 0, 5, "obj-41", "number", "int", 750, 5, "obj-50", "number", "int", 6, 5, "obj-80", "umenu", "int", 1, 5, "obj-59", "flonum", "float", 750.0, 4, "obj-96", "function", "clear", 7, "obj-96", "function", "add", 0.0, 0.0, 0, 7, "obj-96", "function", "add", 14.441238, 3.543386, 0, 7, "obj-96", "function", "add", 101.283343, 0.0, 0, 7, "obj-96", "function", "add", 697.335975, 0.833709, 0, 7, "obj-96", "function", "add", 749.999927, 0.0, 0, 5, "obj-96", "function", "domain", 750.0, 6, "obj-96", "function", "range", 0.0, 24.0, 5, "obj-96", "function", "mode", 0, 5, "obj-97", "number", "int", 0, 5, "obj-109", "toggle", "int", 0, 5, "obj-67", "flonum", "float", 0.0, 5, "obj-126", "number", "int", 0 ]
						}
, 						{
							"number" : 21,
							"data" : [ 4, "obj-12", "function", "clear", 7, "obj-12", "function", "add", 0.0, 0.791138, 0, 7, "obj-12", "function", "add", 82.860129, 0.591138, 0, 7, "obj-12", "function", "add", 114.110129, 0.991138, 0, 7, "obj-12", "function", "add", 301.610129, 0.0, 0, 7, "obj-12", "function", "add", 493.574415, 1.0, 0, 7, "obj-12", "function", "add", 1000.0, 0.74408, 0, 7, "obj-12", "function", "add", 1000.0, 0.0, 0, 5, "obj-12", "function", "domain", 1000.0, 6, "obj-12", "function", "range", 0.0, 1.0, 5, "obj-12", "function", "mode", 0, 5, "obj-5", "number~", "list", 0.0, 5, "obj-24", "flonum", "float", 3.0, 5, "obj-27", "flonum", "float", 5.0, 6, "obj-28", "gain~", "list", 101, 10.0, 6, "obj-185", "textedit", "set", "tri-wave", "puke", 4, "obj-112", "function", "clear", 7, "obj-112", "function", "add", 0.0, 0.0, 0, 7, "obj-112", "function", "add", 129.764557, 0.895624, 0, 7, "obj-112", "function", "add", 268.157415, 0.707388, 0, 7, "obj-112", "function", "add", 821.728843, 0.683859, 0, 7, "obj-112", "function", "add", 1000.0, 0.0, 0, 5, "obj-112", "function", "domain", 1000.0, 6, "obj-112", "function", "range", 0.0, 1.0, 5, "obj-112", "function", "mode", 0, 5, "obj-170", "flonum", "float", 48.0, 5, "obj-167", "flonum", "float", 130.81279, 5, "obj-63", "number~", "list", 0.0, 5, "obj-98", "number~", "list", 0.0, 5, "obj-101", "flonum", "float", 2000.0, 5, "obj-103", "number", "int", 48, 5, "obj-104", "number", "int", 6, 5, "obj-107", "number", "int", 0, 5, "obj-108", "flonum", "float", 100.0, 5, "obj-119", "flonum", "float", 0.5, 5, "obj-120", "flonum", "float", 0.0, 5, "obj-145", "flonum", "float", 1000.0, 5, "obj-148", "flonum", "float", 1000.0, 5, "obj-162", "number~", "list", 0.0, 5, "obj-35", "number", "int", 0, 5, "obj-41", "number", "int", 1000, 5, "obj-50", "number", "int", 6, 5, "obj-80", "umenu", "int", 1, 5, "obj-59", "flonum", "float", 1000.0, 4, "obj-96", "function", "clear", 7, "obj-96", "function", "add", 0.0, 0.0, 0, 7, "obj-96", "function", "add", 29.7813, 3.543386, 0, 7, "obj-96", "function", "add", 771.886563, 0.0, 0, 7, "obj-96", "function", "add", 929.7813, 0.833709, 0, 7, "obj-96", "function", "add", 999.999903, 0.0, 0, 5, "obj-96", "function", "domain", 1000.0, 6, "obj-96", "function", "range", 0.0, 24.0, 5, "obj-96", "function", "mode", 0, 5, "obj-97", "number", "int", 0, 5, "obj-109", "toggle", "int", 0, 5, "obj-67", "flonum", "float", 0.0, 5, "obj-126", "number", "int", 0 ]
						}
, 						{
							"number" : 22,
							"data" : [ 4, "obj-12", "function", "clear", 7, "obj-12", "function", "add", 0.0, 1.0, 0, 7, "obj-12", "function", "add", 24.824415, 0.685256, 0, 7, "obj-12", "function", "add", 82.860129, 0.979374, 0, 7, "obj-12", "function", "add", 136.431558, 0.0, 0, 7, "obj-12", "function", "add", 203.395844, 1.0, 0, 7, "obj-12", "function", "add", 998.038701, 0.497021, 0, 7, "obj-12", "function", "add", 1000.0, 0.0, 0, 5, "obj-12", "function", "domain", 1000.0, 6, "obj-12", "function", "range", 0.0, 1.0, 5, "obj-12", "function", "mode", 0, 5, "obj-5", "number~", "list", 0.0, 5, "obj-24", "flonum", "float", 3.0, 5, "obj-27", "flonum", "float", 5.0, 6, "obj-28", "gain~", "list", 100, 10.0, 7, "obj-185", "textedit", "set", "tri-wave", "puke", 2, 4, "obj-112", "function", "clear", 7, "obj-112", "function", "add", 0.0, 0.0, 0, 7, "obj-112", "function", "add", 129.764557, 0.895624, 0, 7, "obj-112", "function", "add", 268.157415, 0.707388, 0, 7, "obj-112", "function", "add", 821.728843, 0.683859, 0, 7, "obj-112", "function", "add", 1000.0, 0.0, 0, 5, "obj-112", "function", "domain", 1000.0, 6, "obj-112", "function", "range", 0.0, 1.0, 5, "obj-112", "function", "mode", 0, 5, "obj-170", "flonum", "float", 48.0, 5, "obj-167", "flonum", "float", 130.81279, 5, "obj-63", "number~", "list", 0.0, 5, "obj-98", "number~", "list", 0.0, 5, "obj-101", "flonum", "float", 2000.0, 5, "obj-103", "number", "int", 48, 5, "obj-104", "number", "int", 6, 5, "obj-107", "number", "int", 0, 5, "obj-108", "flonum", "float", 100.0, 5, "obj-119", "flonum", "float", 0.5, 5, "obj-120", "flonum", "float", 0.0, 5, "obj-145", "flonum", "float", 1000.0, 5, "obj-148", "flonum", "float", 1000.0, 5, "obj-162", "number~", "list", 0.0, 5, "obj-35", "number", "int", 0, 5, "obj-41", "number", "int", 1000, 5, "obj-50", "number", "int", 6, 5, "obj-80", "umenu", "int", 1, 5, "obj-59", "flonum", "float", 1000.0, 4, "obj-96", "function", "clear", 7, "obj-96", "function", "add", 0.0, 0.0, 0, 7, "obj-96", "function", "add", 29.7813, 3.543386, 0, 7, "obj-96", "function", "add", 771.886563, 0.0, 0, 7, "obj-96", "function", "add", 929.7813, 0.833709, 0, 7, "obj-96", "function", "add", 999.999903, 0.0, 0, 5, "obj-96", "function", "domain", 1000.0, 6, "obj-96", "function", "range", 0.0, 24.0, 5, "obj-96", "function", "mode", 0, 5, "obj-97", "number", "int", 0, 5, "obj-109", "toggle", "int", 0, 5, "obj-67", "flonum", "float", 0.0, 5, "obj-126", "number", "int", 0 ]
						}
, 						{
							"number" : 23,
							"data" : [ 4, "obj-12", "function", "clear", 7, "obj-12", "function", "add", 0.0, 0.0, 0, 7, "obj-12", "function", "add", 65.002987, 0.873491, 0, 7, "obj-12", "function", "add", 114.110129, 0.0, 0, 7, "obj-12", "function", "add", 149.824415, 0.0, 0, 7, "obj-12", "function", "add", 185.538701, 0.567609, 0, 7, "obj-12", "function", "add", 221.252987, 0.0, 0, 7, "obj-12", "function", "add", 355.181558, 0.0, 0, 7, "obj-12", "function", "add", 413.217272, 0.214668, 0, 7, "obj-12", "function", "add", 444.467272, 1.0, 0, 7, "obj-12", "function", "add", 511.431558, 0.0, 0, 7, "obj-12", "function", "add", 605.181558, 0.002903, 0, 7, "obj-12", "function", "add", 721.252987, 0.649962, 0, 7, "obj-12", "function", "add", 788.217272, 0.34408, 0, 7, "obj-12", "function", "add", 850.717272, 0.697021, 0, 7, "obj-12", "function", "add", 998.038701, 0.497021, 0, 7, "obj-12", "function", "add", 1000.0, 0.0, 0, 5, "obj-12", "function", "domain", 1000.0, 6, "obj-12", "function", "range", 0.0, 1.0, 5, "obj-12", "function", "mode", 0, 5, "obj-5", "number~", "list", 0.0, 5, "obj-24", "flonum", "float", 3.0, 5, "obj-27", "flonum", "float", 5.0, 6, "obj-28", "gain~", "list", 97, 10.0, 8, "obj-185", "textedit", "set", "daft", "punk", "goes", "gospel", 4, "obj-112", "function", "clear", 7, "obj-112", "function", "add", 0.0, 0.0, 0, 7, "obj-112", "function", "add", 27.085987, 1.0, 0, 7, "obj-112", "function", "add", 259.228844, 0.883859, 0, 7, "obj-112", "function", "add", 937.800272, 0.872094, 0, 7, "obj-112", "function", "add", 1000.0, 0.0, 0, 5, "obj-112", "function", "domain", 1000.0, 6, "obj-112", "function", "range", 0.0, 1.0, 5, "obj-112", "function", "mode", 0, 5, "obj-170", "flonum", "float", 48.0, 5, "obj-167", "flonum", "float", 130.81279, 5, "obj-63", "number~", "list", 0.0, 5, "obj-98", "number~", "list", 0.0, 5, "obj-101", "flonum", "float", 2250.0, 5, "obj-103", "number", "int", 48, 5, "obj-104", "number", "int", 6, 5, "obj-107", "number", "int", 0, 5, "obj-108", "flonum", "float", 100.0, 5, "obj-119", "flonum", "float", 0.5, 5, "obj-120", "flonum", "float", 0.0, 5, "obj-145", "flonum", "float", 1000.0, 5, "obj-148", "flonum", "float", 1000.0, 5, "obj-162", "number~", "list", 0.0, 5, "obj-35", "number", "int", 0, 5, "obj-41", "number", "int", 1000, 5, "obj-50", "number", "int", 6, 5, "obj-80", "umenu", "int", 1, 5, "obj-59", "flonum", "float", 1000.0, 4, "obj-96", "function", "clear", 7, "obj-96", "function", "add", 0.0, 0.0, 0, 7, "obj-96", "function", "add", 471.886563, 2.769193, 0, 7, "obj-96", "function", "add", 771.886563, 0.0, 0, 7, "obj-96", "function", "add", 929.7813, 0.833709, 0, 7, "obj-96", "function", "add", 999.999903, 0.0, 0, 5, "obj-96", "function", "domain", 1000.0, 6, "obj-96", "function", "range", 0.0, 24.0, 5, "obj-96", "function", "mode", 0, 5, "obj-97", "number", "int", 0, 5, "obj-109", "toggle", "int", 0, 5, "obj-67", "flonum", "float", 0.0, 5, "obj-126", "number", "int", 0 ]
						}
, 						{
							"number" : 24,
							"data" : [ 4, "obj-12", "function", "clear", 7, "obj-12", "function", "add", 0.0, 0.9858, 0, 7, "obj-12", "function", "add", 967.646463, 0.644624, 0, 7, "obj-12", "function", "add", 1000.0, 0.0, 0, 5, "obj-12", "function", "domain", 1000.0, 6, "obj-12", "function", "range", 0.0, 1.0, 5, "obj-12", "function", "mode", 0, 5, "obj-5", "number~", "list", 0.0, 5, "obj-24", "flonum", "float", 3.0, 5, "obj-27", "flonum", "float", 5.0, 6, "obj-28", "gain~", "list", 94, 10.0, 6, "obj-185", "textedit", "set", "percussive", "bell", 4, "obj-112", "function", "clear", 7, "obj-112", "function", "add", 0.0, 0.0, 0, 7, "obj-112", "function", "add", 4.764557, 1.0, 0, 7, "obj-112", "function", "add", 375.300272, 0.213271, 0, 7, "obj-112", "function", "add", 777.085987, 0.025035, 0, 7, "obj-112", "function", "add", 1000.0, 0.0, 0, 5, "obj-112", "function", "domain", 1000.0, 6, "obj-112", "function", "range", 0.0, 1.0, 5, "obj-112", "function", "mode", 0, 5, "obj-170", "flonum", "float", 48.0, 5, "obj-167", "flonum", "float", 130.81279, 5, "obj-63", "number~", "list", 0.0, 5, "obj-98", "number~", "list", 0.0, 5, "obj-101", "flonum", "float", 300.0, 5, "obj-103", "number", "int", 60, 5, "obj-104", "number", "int", 3, 5, "obj-107", "number", "int", 0, 5, "obj-108", "flonum", "float", 50.0, 5, "obj-119", "flonum", "float", 4.0, 5, "obj-120", "flonum", "float", 0.0, 5, "obj-145", "flonum", "float", 1000.0, 5, "obj-148", "flonum", "float", 1000.0, 5, "obj-162", "number~", "list", 0.0, 5, "obj-35", "number", "int", 0, 5, "obj-41", "number", "int", 1000, 5, "obj-50", "number", "int", 3, 5, "obj-80", "umenu", "int", 1, 5, "obj-59", "flonum", "float", 1000.0, 4, "obj-96", "function", "clear", 7, "obj-96", "function", "add", 0.0, 12.446612, 0, 7, "obj-96", "function", "add", 541.284375, 1.875, 0, 7, "obj-96", "function", "add", 999.999902, 0.0, 0, 5, "obj-96", "function", "domain", 1000.0, 6, "obj-96", "function", "range", 0.0, 24.0, 5, "obj-96", "function", "mode", 0, 5, "obj-97", "number", "int", 0, 5, "obj-109", "toggle", "int", 0, 5, "obj-67", "flonum", "float", 0.0, 5, "obj-126", "number", "int", 0 ]
						}
 ],
					"style" : ""
				}

			}
, 			{
				"box" : 				{
					"id" : "obj-85",
					"maxclass" : "newobj",
					"numinlets" : 2,
					"numoutlets" : 1,
					"outlettype" : [ "int" ],
					"patching_rect" : [ 1592.932739, 372.0, 29.5, 22.0 ],
					"style" : "",
					"text" : "+ 1"
				}

			}
, 			{
				"box" : 				{
					"id" : "obj-129",
					"maxclass" : "newobj",
					"numinlets" : 2,
					"numoutlets" : 2,
					"outlettype" : [ "bang", "" ],
					"patching_rect" : [ 1184.824219, 115.474365, 36.0, 22.0 ],
					"style" : "",
					"text" : "sel 0"
				}

			}
, 			{
				"box" : 				{
					"id" : "obj-126",
					"maxclass" : "number",
					"numinlets" : 1,
					"numoutlets" : 2,
					"outlettype" : [ "", "bang" ],
					"parameter_enable" : 0,
					"patching_rect" : [ 1184.824219, 87.260742, 50.0, 22.0 ],
					"style" : ""
				}

			}
, 			{
				"box" : 				{
					"id" : "obj-58",
					"maxclass" : "button",
					"numinlets" : 1,
					"numoutlets" : 1,
					"outlettype" : [ "bang" ],
					"patching_rect" : [ 1187.324219, 147.959137, 45.0, 45.0 ],
					"style" : ""
				}

			}
, 			{
				"box" : 				{
					"id" : "obj-54",
					"maxclass" : "newobj",
					"numinlets" : 1,
					"numoutlets" : 3,
					"outlettype" : [ "int", "int", "int" ],
					"patching_rect" : [ 1095.02832, 83.053986, 43.0, 22.0 ],
					"style" : "",
					"text" : "notein"
				}

			}
, 			{
				"box" : 				{
					"id" : "obj-48",
					"maxclass" : "newobj",
					"numinlets" : 1,
					"numoutlets" : 0,
					"patching_rect" : [ 1187.324219, 197.326599, 47.0, 22.0 ],
					"style" : "",
					"text" : "s bang"
				}

			}
, 			{
				"box" : 				{
					"id" : "obj-62",
					"maxclass" : "comment",
					"numinlets" : 1,
					"numoutlets" : 0,
					"patching_rect" : [ 1109.092529, 127.974365, 65.25, 20.0 ],
					"style" : "",
					"text" : "MIDI Note"
				}

			}
, 			{
				"box" : 				{
					"fontname" : "Arial",
					"fontsize" : 12.0,
					"format" : 6,
					"id" : "obj-67",
					"maxclass" : "flonum",
					"numinlets" : 1,
					"numoutlets" : 2,
					"outlettype" : [ "", "bang" ],
					"parameter_enable" : 0,
					"patching_rect" : [ 1095.02832, 147.959137, 78.0, 22.0 ],
					"presentation" : 1,
					"presentation_rect" : [ 766.0, 42.492111, 50.0, 22.0 ],
					"style" : ""
				}

			}
, 			{
				"box" : 				{
					"fontname" : "Arial",
					"fontsize" : 13.0,
					"id" : "obj-1",
					"maxclass" : "message",
					"numinlets" : 2,
					"numoutlets" : 1,
					"outlettype" : [ "" ],
					"patching_rect" : [ 203.015335, 259.885559, 104.0, 23.0 ],
					"style" : "",
					"text" : "read readthis.txt"
				}

			}
, 			{
				"box" : 				{
					"id" : "obj-114",
					"maxclass" : "button",
					"numinlets" : 1,
					"numoutlets" : 1,
					"outlettype" : [ "bang" ],
					"patching_rect" : [ 316.76532, 259.885559, 24.0, 24.0 ],
					"presentation_rect" : [ 110.0, 395.0, 24.0, 24.0 ],
					"style" : ""
				}

			}
, 			{
				"box" : 				{
					"id" : "obj-109",
					"maxclass" : "toggle",
					"numinlets" : 1,
					"numoutlets" : 1,
					"outlettype" : [ "int" ],
					"parameter_enable" : 0,
					"patching_rect" : [ 227.91214, 113.671936, 24.0, 24.0 ],
					"style" : ""
				}

			}
, 			{
				"box" : 				{
					"id" : "obj-97",
					"maxclass" : "number",
					"numinlets" : 1,
					"numoutlets" : 2,
					"outlettype" : [ "", "bang" ],
					"parameter_enable" : 0,
					"patching_rect" : [ 225.015335, 152.679932, 50.0, 22.0 ],
					"style" : ""
				}

			}
, 			{
				"box" : 				{
					"id" : "obj-68",
					"maxclass" : "newobj",
					"numinlets" : 2,
					"numoutlets" : 1,
					"outlettype" : [ "bang" ],
					"patching_rect" : [ 203.015335, 184.551926, 65.0, 22.0 ],
					"style" : "",
					"text" : "metro 500"
				}

			}
, 			{
				"box" : 				{
					"addpoints" : [ 0.0, 7.5, 0, 541.284375, 1.875, 0, 999.999902, 0.0, 0 ],
					"id" : "obj-96",
					"maxclass" : "function",
					"numinlets" : 1,
					"numoutlets" : 4,
					"outlettype" : [ "float", "", "", "bang" ],
					"parameter_enable" : 0,
					"patching_rect" : [ 1043.341553, 405.153748, 202.0, 87.0 ],
					"range" : [ 0.0, 24.0 ],
					"style" : ""
				}

			}
, 			{
				"box" : 				{
					"id" : "obj-95",
					"maxclass" : "comment",
					"numinlets" : 1,
					"numoutlets" : 0,
					"patching_rect" : [ 449.059753, 753.039856, 18.5, 20.0 ],
					"style" : "",
					"text" : "5"
				}

			}
, 			{
				"box" : 				{
					"id" : "obj-93",
					"maxclass" : "comment",
					"numinlets" : 1,
					"numoutlets" : 0,
					"patching_rect" : [ 526.559753, 753.039856, 18.5, 20.0 ],
					"style" : "",
					"text" : "6"
				}

			}
, 			{
				"box" : 				{
					"id" : "obj-91",
					"maxclass" : "comment",
					"numinlets" : 1,
					"numoutlets" : 0,
					"patching_rect" : [ 383.431946, 753.039856, 18.5, 20.0 ],
					"style" : "",
					"text" : "4"
				}

			}
, 			{
				"box" : 				{
					"id" : "obj-90",
					"maxclass" : "comment",
					"numinlets" : 1,
					"numoutlets" : 0,
					"patching_rect" : [ 308.505981, 753.039856, 18.5, 20.0 ],
					"style" : "",
					"text" : "3"
				}

			}
, 			{
				"box" : 				{
					"id" : "obj-88",
					"maxclass" : "comment",
					"numinlets" : 1,
					"numoutlets" : 0,
					"patching_rect" : [ 251.63266, 753.039856, 18.5, 20.0 ],
					"style" : "",
					"text" : "2"
				}

			}
, 			{
				"box" : 				{
					"fontface" : 1,
					"fontsize" : 16.0,
					"id" : "obj-92",
					"maxclass" : "comment",
					"numinlets" : 1,
					"numoutlets" : 0,
					"patching_rect" : [ 239.512039, 539.378784, 178.506592, 25.0 ],
					"style" : "",
					"text" : "Send all kinds of data!"
				}

			}
, 			{
				"box" : 				{
					"id" : "obj-55",
					"maxclass" : "newobj",
					"numinlets" : 0,
					"numoutlets" : 1,
					"outlettype" : [ "" ],
					"patching_rect" : [ 1161.341553, 315.768585, 84.0, 22.0 ],
					"style" : "",
					"text" : "r DrDuration"
				}

			}
, 			{
				"box" : 				{
					"bgcolor" : [ 0.454902, 0.462745, 0.482353, 1.0 ],
					"bgcolor2" : [ 0.290196, 0.309804, 0.301961, 1.0 ],
					"bgfillcolor_angle" : 270.0,
					"bgfillcolor_autogradient" : 0.0,
					"bgfillcolor_color" : [ 0.290196, 0.309804, 0.301961, 1.0 ],
					"bgfillcolor_color1" : [ 0.454902, 0.462745, 0.482353, 1.0 ],
					"bgfillcolor_color2" : [ 0.290196, 0.309804, 0.301961, 1.0 ],
					"bgfillcolor_proportion" : 0.39,
					"bgfillcolor_type" : "gradient",
					"gradient" : 1,
					"id" : "obj-57",
					"maxclass" : "message",
					"numinlets" : 2,
					"numoutlets" : 1,
					"outlettype" : [ "" ],
					"patching_rect" : [ 1161.341553, 370.522064, 84.0, 22.0 ],
					"style" : "",
					"text" : "setdomain $1"
				}

			}
, 			{
				"box" : 				{
					"format" : 6,
					"id" : "obj-59",
					"maxclass" : "flonum",
					"minimum" : 0.0,
					"numinlets" : 1,
					"numoutlets" : 2,
					"outlettype" : [ "", "bang" ],
					"parameter_enable" : 0,
					"patching_rect" : [ 1161.341553, 343.447845, 84.0, 22.0 ],
					"style" : "numberGold-1",
					"triscale" : 0.9
				}

			}
, 			{
				"box" : 				{
					"id" : "obj-84",
					"maxclass" : "newobj",
					"numinlets" : 1,
					"numoutlets" : 1,
					"outlettype" : [ "signal" ],
					"patching_rect" : [ 866.671509, 342.035126, 33.0, 22.0 ],
					"style" : "",
					"text" : "sig~"
				}

			}
, 			{
				"box" : 				{
					"id" : "obj-83",
					"maxclass" : "newobj",
					"numinlets" : 2,
					"numoutlets" : 1,
					"outlettype" : [ "int" ],
					"patching_rect" : [ 1040.227783, 311.768585, 29.5, 22.0 ],
					"style" : "",
					"text" : "+ 1"
				}

			}
, 			{
				"box" : 				{
					"fontsize" : 14.0,
					"id" : "obj-80",
					"items" : [ "Fixed", ",", "Evelope" ],
					"maxclass" : "umenu",
					"numinlets" : 1,
					"numoutlets" : 3,
					"outlettype" : [ "int", "", "" ],
					"parameter_enable" : 0,
					"patching_rect" : [ 1040.227783, 276.024506, 86.567017, 25.0 ],
					"style" : ""
				}

			}
, 			{
				"box" : 				{
					"id" : "obj-18",
					"maxclass" : "newobj",
					"numinlets" : 3,
					"numoutlets" : 1,
					"outlettype" : [ "signal" ],
					"patching_rect" : [ 930.172485, 448.183472, 70.0, 22.0 ],
					"style" : "",
					"text" : "selector~ 2"
				}

			}
, 			{
				"box" : 				{
					"id" : "obj-79",
					"maxclass" : "newobj",
					"numinlets" : 1,
					"numoutlets" : 1,
					"outlettype" : [ "signal" ],
					"patching_rect" : [ 955.672485, 415.497833, 33.0, 22.0 ],
					"style" : "",
					"text" : "sig~"
				}

			}
, 			{
				"box" : 				{
					"id" : "obj-78",
					"maxclass" : "newobj",
					"numinlets" : 1,
					"numoutlets" : 1,
					"outlettype" : [ "signal" ],
					"patching_rect" : [ 801.171509, 304.024506, 33.0, 22.0 ],
					"style" : "",
					"text" : "sig~"
				}

			}
, 			{
				"box" : 				{
					"id" : "obj-47",
					"maxclass" : "newobj",
					"numinlets" : 2,
					"numoutlets" : 1,
					"outlettype" : [ "signal" ],
					"patching_rect" : [ 917.172485, 499.153534, 32.0, 22.0 ],
					"style" : "",
					"text" : "*~ 0"
				}

			}
, 			{
				"box" : 				{
					"fontsize" : 16.0,
					"id" : "obj-50",
					"maxclass" : "number",
					"maximum" : 6,
					"minimum" : 0,
					"numinlets" : 1,
					"numoutlets" : 2,
					"outlettype" : [ "", "bang" ],
					"parameter_enable" : 0,
					"patching_rect" : [ 369.26532, 443.709656, 57.0, 27.0 ],
					"style" : ""
				}

			}
, 			{
				"box" : 				{
					"id" : "obj-75",
					"maxclass" : "newobj",
					"numinlets" : 1,
					"numoutlets" : 0,
					"patching_rect" : [ 369.26532, 509.709656, 63.0, 22.0 ],
					"style" : "",
					"text" : "s DrWave"
				}

			}
, 			{
				"box" : 				{
					"fontface" : 1,
					"fontsize" : 20.0,
					"id" : "obj-77",
					"maxclass" : "comment",
					"numinlets" : 1,
					"numoutlets" : 0,
					"patching_rect" : [ 385.26532, 472.870239, 25.0, 29.0 ],
					"style" : "",
					"text" : "4"
				}

			}
, 			{
				"box" : 				{
					"id" : "obj-16",
					"maxclass" : "newobj",
					"numinlets" : 2,
					"numoutlets" : 2,
					"outlettype" : [ "bang", "" ],
					"patching_rect" : [ 151.178314, 432.960266, 36.0, 22.0 ],
					"style" : "",
					"text" : "sel 1"
				}

			}
, 			{
				"box" : 				{
					"id" : "obj-74",
					"maxclass" : "button",
					"numinlets" : 1,
					"numoutlets" : 1,
					"outlettype" : [ "bang" ],
					"patching_rect" : [ 1504.932739, 108.25238, 45.0, 45.0 ],
					"style" : ""
				}

			}
, 			{
				"box" : 				{
					"id" : "obj-73",
					"maxclass" : "button",
					"numinlets" : 1,
					"numoutlets" : 1,
					"outlettype" : [ "bang" ],
					"patching_rect" : [ 1107.807007, 343.447845, 45.848328, 45.848328 ],
					"style" : ""
				}

			}
, 			{
				"box" : 				{
					"id" : "obj-72",
					"maxclass" : "button",
					"numinlets" : 1,
					"numoutlets" : 1,
					"outlettype" : [ "bang" ],
					"patching_rect" : [ 1499.740601, 712.553406, 45.0, 45.0 ],
					"style" : ""
				}

			}
, 			{
				"box" : 				{
					"id" : "obj-71",
					"maxclass" : "button",
					"numinlets" : 1,
					"numoutlets" : 1,
					"outlettype" : [ "bang" ],
					"patching_rect" : [ 151.178314, 463.298737, 36.0, 36.0 ],
					"style" : ""
				}

			}
, 			{
				"box" : 				{
					"id" : "obj-70",
					"maxclass" : "newobj",
					"numinlets" : 0,
					"numoutlets" : 1,
					"outlettype" : [ "" ],
					"patching_rect" : [ 1504.932739, 77.847229, 45.0, 22.0 ],
					"style" : "",
					"text" : "r bang"
				}

			}
, 			{
				"box" : 				{
					"id" : "obj-60",
					"maxclass" : "newobj",
					"numinlets" : 0,
					"numoutlets" : 1,
					"outlettype" : [ "" ],
					"patching_rect" : [ 1107.807007, 315.768585, 45.0, 22.0 ],
					"style" : "",
					"text" : "r bang"
				}

			}
, 			{
				"box" : 				{
					"id" : "obj-53",
					"maxclass" : "newobj",
					"numinlets" : 1,
					"numoutlets" : 0,
					"patching_rect" : [ 151.178314, 509.709656, 47.0, 22.0 ],
					"style" : "",
					"text" : "s bang"
				}

			}
, 			{
				"box" : 				{
					"id" : "obj-52",
					"maxclass" : "newobj",
					"numinlets" : 0,
					"numoutlets" : 1,
					"outlettype" : [ "" ],
					"patching_rect" : [ 1499.740601, 684.874146, 45.0, 22.0 ],
					"style" : "",
					"text" : "r bang"
				}

			}
, 			{
				"box" : 				{
					"id" : "obj-49",
					"maxclass" : "newobj",
					"numinlets" : 2,
					"numoutlets" : 2,
					"outlettype" : [ "signal", "bang" ],
					"patching_rect" : [ 1043.341553, 499.153534, 37.0, 22.0 ],
					"style" : "",
					"text" : "line~"
				}

			}
, 			{
				"box" : 				{
					"id" : "obj-46",
					"maxclass" : "newobj",
					"numinlets" : 0,
					"numoutlets" : 1,
					"outlettype" : [ "" ],
					"patching_rect" : [ 1297.247192, 83.053986, 57.0, 22.0 ],
					"style" : "",
					"text" : "r DrPitch"
				}

			}
, 			{
				"box" : 				{
					"fontsize" : 16.0,
					"id" : "obj-41",
					"maxclass" : "number",
					"minimum" : 0,
					"numinlets" : 1,
					"numoutlets" : 2,
					"outlettype" : [ "", "bang" ],
					"parameter_enable" : 0,
					"patching_rect" : [ 210.378372, 443.709656, 57.0, 27.0 ],
					"style" : ""
				}

			}
, 			{
				"box" : 				{
					"id" : "obj-44",
					"maxclass" : "newobj",
					"numinlets" : 1,
					"numoutlets" : 0,
					"patching_rect" : [ 210.378372, 509.709656, 78.0, 22.0 ],
					"style" : "",
					"text" : "s DrDuration"
				}

			}
, 			{
				"box" : 				{
					"fontface" : 1,
					"fontsize" : 20.0,
					"id" : "obj-45",
					"maxclass" : "comment",
					"numinlets" : 1,
					"numoutlets" : 0,
					"patching_rect" : [ 227.91214, 472.870239, 25.0, 29.0 ],
					"style" : "",
					"text" : "2"
				}

			}
, 			{
				"box" : 				{
					"fontsize" : 16.0,
					"id" : "obj-35",
					"maxclass" : "number",
					"maximum" : 24,
					"minimum" : 0,
					"numinlets" : 1,
					"numoutlets" : 2,
					"outlettype" : [ "", "bang" ],
					"parameter_enable" : 0,
					"patching_rect" : [ 444.26535, 442.709656, 57.0, 27.0 ],
					"style" : ""
				}

			}
, 			{
				"box" : 				{
					"id" : "obj-37",
					"maxclass" : "newobj",
					"numinlets" : 1,
					"numoutlets" : 0,
					"patching_rect" : [ 444.26535, 509.709656, 67.0, 22.0 ],
					"style" : "",
					"text" : "s DrPreset"
				}

			}
, 			{
				"box" : 				{
					"fontface" : 1,
					"fontsize" : 20.0,
					"id" : "obj-40",
					"maxclass" : "comment",
					"numinlets" : 1,
					"numoutlets" : 0,
					"patching_rect" : [ 465.26535, 472.870239, 25.0, 29.0 ],
					"style" : "",
					"text" : "5"
				}

			}
, 			{
				"box" : 				{
					"id" : "obj-179",
					"maxclass" : "newobj",
					"numinlets" : 0,
					"numoutlets" : 1,
					"outlettype" : [ "" ],
					"patching_rect" : [ 1550.247192, 684.874146, 84.0, 22.0 ],
					"style" : "",
					"text" : "r DrDuration"
				}

			}
, 			{
				"box" : 				{
					"id" : "obj-178",
					"maxclass" : "newobj",
					"numinlets" : 0,
					"numoutlets" : 1,
					"outlettype" : [ "" ],
					"patching_rect" : [ 1558.468018, 77.847229, 84.0, 22.0 ],
					"style" : "",
					"text" : "r DrDuration"
				}

			}
, 			{
				"box" : 				{
					"bgcolor" : [ 0.248788, 0.249934, 0.242723, 1.0 ],
					"fontface" : 0,
					"fontname" : "Arial",
					"fontsize" : 12.0,
					"ft1" : 5.0,
					"id" : "obj-162",
					"maxclass" : "number~",
					"mode" : 2,
					"numinlets" : 2,
					"numoutlets" : 2,
					"outlettype" : [ "signal", "float" ],
					"patching_rect" : [ 141.678314, 891.510803, 83.0, 22.0 ],
					"presentation" : 1,
					"presentation_rect" : [ 456.225037, 300.027435, 116.0, 22.0 ],
					"sig" : 0.0,
					"style" : "",
					"textcolor" : [ 1.0, 1.0, 1.0, 1.0 ]
				}

			}
, 			{
				"box" : 				{
					"bgcolor" : [ 0.454902, 0.462745, 0.482353, 1.0 ],
					"bgcolor2" : [ 0.290196, 0.309804, 0.301961, 1.0 ],
					"bgfillcolor_angle" : 270.0,
					"bgfillcolor_autogradient" : 0.0,
					"bgfillcolor_color" : [ 0.290196, 0.309804, 0.301961, 1.0 ],
					"bgfillcolor_color1" : [ 0.454902, 0.462745, 0.482353, 1.0 ],
					"bgfillcolor_color2" : [ 0.290196, 0.309804, 0.301961, 1.0 ],
					"bgfillcolor_proportion" : 0.39,
					"bgfillcolor_type" : "gradient",
					"gradient" : 1,
					"id" : "obj-147",
					"maxclass" : "message",
					"numinlets" : 2,
					"numoutlets" : 1,
					"outlettype" : [ "" ],
					"patching_rect" : [ 1558.468018, 133.613007, 84.0, 22.0 ],
					"style" : "",
					"text" : "setdomain $1"
				}

			}
, 			{
				"box" : 				{
					"format" : 6,
					"id" : "obj-148",
					"maxclass" : "flonum",
					"minimum" : 0.0,
					"numinlets" : 1,
					"numoutlets" : 2,
					"outlettype" : [ "", "bang" ],
					"parameter_enable" : 0,
					"patching_rect" : [ 1558.468018, 107.038788, 84.0, 22.0 ],
					"style" : "numberGold-1",
					"triscale" : 0.9
				}

			}
, 			{
				"box" : 				{
					"bgcolor" : [ 0.454902, 0.462745, 0.482353, 1.0 ],
					"bgcolor2" : [ 0.290196, 0.309804, 0.301961, 1.0 ],
					"bgfillcolor_angle" : 270.0,
					"bgfillcolor_autogradient" : 0.0,
					"bgfillcolor_color" : [ 0.290196, 0.309804, 0.301961, 1.0 ],
					"bgfillcolor_color1" : [ 0.454902, 0.462745, 0.482353, 1.0 ],
					"bgfillcolor_color2" : [ 0.290196, 0.309804, 0.301961, 1.0 ],
					"bgfillcolor_proportion" : 0.39,
					"bgfillcolor_type" : "gradient",
					"gradient" : 1,
					"id" : "obj-144",
					"maxclass" : "message",
					"numinlets" : 2,
					"numoutlets" : 1,
					"outlettype" : [ "" ],
					"patching_rect" : [ 1550.247192, 739.627625, 84.0, 22.0 ],
					"style" : "",
					"text" : "setdomain $1"
				}

			}
, 			{
				"box" : 				{
					"format" : 6,
					"id" : "obj-145",
					"maxclass" : "flonum",
					"minimum" : 0.0,
					"numinlets" : 1,
					"numoutlets" : 2,
					"outlettype" : [ "", "bang" ],
					"parameter_enable" : 0,
					"patching_rect" : [ 1550.247192, 712.553406, 84.0, 22.0 ],
					"style" : "numberGold-1",
					"triscale" : 0.9
				}

			}
, 			{
				"box" : 				{
					"id" : "obj-142",
					"maxclass" : "newobj",
					"numinlets" : 0,
					"numoutlets" : 1,
					"outlettype" : [ "" ],
					"patching_rect" : [ 955.672485, 350.147003, 60.0, 22.0 ],
					"style" : "",
					"text" : "r DrIndex"
				}

			}
, 			{
				"box" : 				{
					"id" : "obj-141",
					"maxclass" : "newobj",
					"numinlets" : 0,
					"numoutlets" : 1,
					"outlettype" : [ "" ],
					"patching_rect" : [ 866.671509, 276.024506, 59.0, 22.0 ],
					"style" : "",
					"text" : "r DrRatio"
				}

			}
, 			{
				"box" : 				{
					"fontface" : 1,
					"fontsize" : 24.0,
					"id" : "obj-140",
					"maxclass" : "comment",
					"numinlets" : 1,
					"numoutlets" : 0,
					"patching_rect" : [ 1496.461426, 35.347229, 40.0, 34.0 ],
					"style" : "",
					"text" : "(7)",
					"textcolor" : [ 0.52549, 0.062745, 0.003922, 1.0 ]
				}

			}
, 			{
				"box" : 				{
					"fontface" : 1,
					"fontsize" : 24.0,
					"id" : "obj-139",
					"maxclass" : "comment",
					"numinlets" : 1,
					"numoutlets" : 0,
					"patching_rect" : [ 1185.119263, 573.060181, 40.0, 34.0 ],
					"style" : "",
					"text" : "(5)",
					"textcolor" : [ 0.52549, 0.062745, 0.003922, 1.0 ]
				}

			}
, 			{
				"box" : 				{
					"fontface" : 1,
					"fontsize" : 24.0,
					"id" : "obj-138",
					"maxclass" : "comment",
					"numinlets" : 1,
					"numoutlets" : 0,
					"patching_rect" : [ 234.821747, 642.421936, 40.0, 34.0 ],
					"style" : "",
					"text" : "(4)",
					"textcolor" : [ 0.52549, 0.062745, 0.003922, 1.0 ]
				}

			}
, 			{
				"box" : 				{
					"fontface" : 1,
					"fontsize" : 24.0,
					"id" : "obj-137",
					"maxclass" : "comment",
					"numinlets" : 1,
					"numoutlets" : 0,
					"patching_rect" : [ 667.703735, 163.628006, 39.316895, 34.0 ],
					"style" : "",
					"text" : "(3)",
					"textcolor" : [ 0.52549, 0.062745, 0.003922, 1.0 ]
				}

			}
, 			{
				"box" : 				{
					"fontface" : 1,
					"fontsize" : 24.0,
					"id" : "obj-136",
					"maxclass" : "comment",
					"numinlets" : 1,
					"numoutlets" : 0,
					"patching_rect" : [ 1123.683472, 40.347229, 40.0, 34.0 ],
					"style" : "",
					"text" : "(2)",
					"textcolor" : [ 0.52549, 0.062745, 0.003922, 1.0 ]
				}

			}
, 			{
				"box" : 				{
					"fontface" : 1,
					"fontsize" : 24.0,
					"id" : "obj-135",
					"maxclass" : "comment",
					"numinlets" : 1,
					"numoutlets" : 0,
					"patching_rect" : [ 141.678314, 37.847229, 40.0, 34.0 ],
					"style" : "",
					"text" : "(1)",
					"textcolor" : [ 0.52549, 0.062745, 0.003922, 1.0 ]
				}

			}
, 			{
				"box" : 				{
					"fontface" : 1,
					"fontsize" : 20.0,
					"id" : "obj-130",
					"maxclass" : "comment",
					"numinlets" : 1,
					"numoutlets" : 0,
					"patching_rect" : [ 1165.683472, 40.347229, 170.968262, 29.0 ],
					"style" : "",
					"text" : "Start with pitch"
				}

			}
, 			{
				"box" : 				{
					"id" : "obj-128",
					"maxclass" : "newobj",
					"numinlets" : 0,
					"numoutlets" : 1,
					"outlettype" : [ "" ],
					"patching_rect" : [ 745.094727, 791.082031, 46.0, 22.0 ],
					"style" : "",
					"text" : "r wave"
				}

			}
, 			{
				"box" : 				{
					"id" : "obj-127",
					"maxclass" : "newobj",
					"numinlets" : 1,
					"numoutlets" : 0,
					"patching_rect" : [ 236.88266, 891.510803, 48.0, 22.0 ],
					"style" : "",
					"text" : "s wave"
				}

			}
, 			{
				"box" : 				{
					"id" : "obj-125",
					"maxclass" : "newobj",
					"numinlets" : 1,
					"numoutlets" : 0,
					"patching_rect" : [ 473.319153, 644.921936, 37.0, 22.0 ],
					"style" : "",
					"text" : "s FM"
				}

			}
, 			{
				"box" : 				{
					"fontface" : 1,
					"fontsize" : 20.0,
					"id" : "obj-124",
					"maxclass" : "comment",
					"numinlets" : 1,
					"numoutlets" : 0,
					"patching_rect" : [ 271.458984, 644.921936, 170.362793, 29.0 ],
					"style" : "",
					"text" : "Select Waveform"
				}

			}
, 			{
				"box" : 				{
					"fontface" : 1,
					"fontsize" : 14.0,
					"id" : "obj-123",
					"linecount" : 2,
					"maxclass" : "comment",
					"numinlets" : 1,
					"numoutlets" : 0,
					"patching_rect" : [ 924.672485, 570.727478, 95.0, 39.0 ],
					"style" : "",
					"text" : "Modulating   Oscillator"
				}

			}
, 			{
				"box" : 				{
					"format" : 6,
					"id" : "obj-120",
					"maxclass" : "flonum",
					"numinlets" : 1,
					"numoutlets" : 2,
					"outlettype" : [ "", "bang" ],
					"parameter_enable" : 0,
					"patching_rect" : [ 955.672485, 381.348236, 50.0, 22.0 ],
					"style" : ""
				}

			}
, 			{
				"box" : 				{
					"format" : 6,
					"id" : "obj-119",
					"maxclass" : "flonum",
					"numinlets" : 1,
					"numoutlets" : 2,
					"outlettype" : [ "", "bang" ],
					"parameter_enable" : 0,
					"patching_rect" : [ 866.671509, 304.024506, 50.0, 22.0 ],
					"style" : ""
				}

			}
, 			{
				"box" : 				{
					"id" : "obj-111",
					"maxclass" : "newobj",
					"numinlets" : 2,
					"numoutlets" : 1,
					"outlettype" : [ "signal" ],
					"patching_rect" : [ 853.671509, 409.826141, 32.0, 22.0 ],
					"style" : "",
					"text" : "*~ 0"
				}

			}
, 			{
				"box" : 				{
					"fontsize" : 12.0,
					"format" : 6,
					"id" : "obj-108",
					"maxclass" : "flonum",
					"numinlets" : 1,
					"numoutlets" : 2,
					"outlettype" : [ "", "bang" ],
					"parameter_enable" : 0,
					"patching_rect" : [ 1238.119263, 695.626465, 59.0, 22.0 ],
					"style" : ""
				}

			}
, 			{
				"box" : 				{
					"id" : "obj-107",
					"maxclass" : "number",
					"numinlets" : 1,
					"numoutlets" : 2,
					"outlettype" : [ "", "bang" ],
					"parameter_enable" : 0,
					"patching_rect" : [ 1592.932739, 342.504883, 50.0, 22.0 ],
					"style" : ""
				}

			}
, 			{
				"box" : 				{
					"id" : "obj-105",
					"maxclass" : "comment",
					"numinlets" : 1,
					"numoutlets" : 0,
					"patching_rect" : [ 200.13266, 753.039856, 18.5, 20.0 ],
					"style" : "",
					"text" : "1"
				}

			}
, 			{
				"box" : 				{
					"fontsize" : 16.0,
					"id" : "obj-104",
					"maxclass" : "number",
					"maximum" : 6,
					"minimum" : 0,
					"numinlets" : 1,
					"numoutlets" : 2,
					"outlettype" : [ "", "bang" ],
					"parameter_enable" : 0,
					"patching_rect" : [ 141.678314, 700.007141, 40.0, 27.0 ],
					"style" : ""
				}

			}
, 			{
				"box" : 				{
					"fontsize" : 16.0,
					"id" : "obj-103",
					"maxclass" : "number",
					"minimum" : 0,
					"numinlets" : 1,
					"numoutlets" : 2,
					"outlettype" : [ "", "bang" ],
					"parameter_enable" : 0,
					"patching_rect" : [ 299.26532, 443.709656, 57.0, 27.0 ],
					"style" : ""
				}

			}
, 			{
				"box" : 				{
					"fontsize" : 12.0,
					"format" : 6,
					"id" : "obj-101",
					"maxclass" : "flonum",
					"numinlets" : 1,
					"numoutlets" : 2,
					"outlettype" : [ "", "bang" ],
					"parameter_enable" : 0,
					"patching_rect" : [ 1238.119263, 624.724304, 59.0, 22.0 ],
					"style" : ""
				}

			}
, 			{
				"box" : 				{
					"fontface" : 0,
					"fontname" : "Arial",
					"fontsize" : 12.0,
					"ft1" : 5.0,
					"id" : "obj-98",
					"maxclass" : "number~",
					"mode" : 2,
					"numinlets" : 2,
					"numoutlets" : 2,
					"outlettype" : [ "signal", "float" ],
					"patching_rect" : [ 865.832031, 621.633423, 68.0, 22.0 ],
					"sig" : 0.0,
					"style" : ""
				}

			}
, 			{
				"box" : 				{
					"fontface" : 0,
					"fontname" : "Arial",
					"fontsize" : 12.0,
					"ft1" : 5.0,
					"id" : "obj-63",
					"maxclass" : "number~",
					"mode" : 2,
					"numinlets" : 2,
					"numoutlets" : 2,
					"outlettype" : [ "signal", "float" ],
					"patching_rect" : [ 1119.813965, 682.954285, 56.0, 22.0 ],
					"sig" : 0.0,
					"style" : ""
				}

			}
, 			{
				"box" : 				{
					"fontface" : 1,
					"fontsize" : 20.0,
					"id" : "obj-152",
					"maxclass" : "comment",
					"numinlets" : 1,
					"numoutlets" : 0,
					"patching_rect" : [ 703.421021, 166.128006, 229.500977, 29.0 ],
					"style" : "",
					"text" : "Frequency Modulation"
				}

			}
, 			{
				"box" : 				{
					"id" : "obj-154",
					"maxclass" : "newobj",
					"numinlets" : 2,
					"numoutlets" : 1,
					"outlettype" : [ "signal" ],
					"patching_rect" : [ 853.671509, 499.153534, 45.0, 22.0 ],
					"style" : "",
					"text" : "cycle~"
				}

			}
, 			{
				"box" : 				{
					"id" : "obj-155",
					"maxclass" : "newobj",
					"numinlets" : 2,
					"numoutlets" : 1,
					"outlettype" : [ "signal" ],
					"patching_rect" : [ 854.921509, 543.968384, 29.5, 22.0 ],
					"style" : "",
					"text" : "*~"
				}

			}
, 			{
				"box" : 				{
					"id" : "obj-156",
					"maxclass" : "newobj",
					"numinlets" : 2,
					"numoutlets" : 1,
					"outlettype" : [ "signal" ],
					"patching_rect" : [ 800.832031, 599.396667, 29.5, 22.0 ],
					"style" : "",
					"text" : "+~"
				}

			}
, 			{
				"box" : 				{
					"fontface" : 1,
					"fontsize" : 14.0,
					"id" : "obj-157",
					"maxclass" : "comment",
					"numinlets" : 1,
					"numoutlets" : 0,
					"patching_rect" : [ 1021.511353, 249.564651, 124.0, 23.0 ],
					"style" : "",
					"text" : "Modulation Index"
				}

			}
, 			{
				"box" : 				{
					"fontface" : 1,
					"fontsize" : 16.0,
					"id" : "obj-158",
					"maxclass" : "comment",
					"numinlets" : 1,
					"numoutlets" : 0,
					"patching_rect" : [ 709.953247, 225.564651, 62.0, 25.0 ],
					"style" : "",
					"text" : "Carrier"
				}

			}
, 			{
				"box" : 				{
					"fontface" : 1,
					"fontsize" : 14.0,
					"id" : "obj-159",
					"maxclass" : "comment",
					"numinlets" : 1,
					"numoutlets" : 0,
					"patching_rect" : [ 832.171509, 249.564651, 128.0, 23.0 ],
					"style" : "",
					"text" : "Harmonicity Ratio"
				}

			}
, 			{
				"box" : 				{
					"fontface" : 1,
					"fontsize" : 16.0,
					"id" : "obj-160",
					"maxclass" : "comment",
					"numinlets" : 1,
					"numoutlets" : 0,
					"patching_rect" : [ 953.672485, 225.564651, 90.0, 25.0 ],
					"style" : "",
					"text" : "Modulator"
				}

			}
, 			{
				"box" : 				{
					"bgcolor" : [ 0.248788, 0.249934, 0.242723, 1.0 ],
					"fontname" : "Arial",
					"fontsize" : 12.0,
					"format" : 6,
					"htricolor" : [ 0.849573, 1.0, 0.926902, 1.0 ],
					"id" : "obj-167",
					"maxclass" : "flonum",
					"numinlets" : 1,
					"numoutlets" : 2,
					"outlettype" : [ "", "bang" ],
					"parameter_enable" : 0,
					"patching_rect" : [ 715.953247, 259.885559, 65.0, 22.0 ],
					"presentation" : 1,
					"presentation_rect" : [ 133.845856, 433.927429, 50.0, 22.0 ],
					"style" : "",
					"textcolor" : [ 1.0, 1.0, 1.0, 1.0 ]
				}

			}
, 			{
				"box" : 				{
					"fontname" : "Arial",
					"fontsize" : 12.0,
					"id" : "obj-168",
					"maxclass" : "newobj",
					"numinlets" : 1,
					"numoutlets" : 1,
					"outlettype" : [ "" ],
					"patching_rect" : [ 801.171509, 210.064651, 34.0, 22.0 ],
					"style" : "",
					"text" : "mtof"
				}

			}
, 			{
				"box" : 				{
					"fontname" : "Arial",
					"fontsize" : 12.0,
					"format" : 6,
					"id" : "obj-170",
					"maxclass" : "flonum",
					"numinlets" : 1,
					"numoutlets" : 2,
					"outlettype" : [ "", "bang" ],
					"parameter_enable" : 0,
					"patching_rect" : [ 1297.247192, 114.671936, 78.0, 22.0 ],
					"presentation" : 1,
					"presentation_rect" : [ 766.0, 42.492111, 50.0, 22.0 ],
					"style" : ""
				}

			}
, 			{
				"box" : 				{
					"id" : "obj-94",
					"maxclass" : "newobj",
					"numinlets" : 0,
					"numoutlets" : 1,
					"outlettype" : [ "" ],
					"patching_rect" : [ 141.678314, 667.846497, 61.0, 22.0 ],
					"style" : "",
					"text" : "r DrWave"
				}

			}
, 			{
				"box" : 				{
					"id" : "obj-87",
					"maxclass" : "newobj",
					"numinlets" : 0,
					"numoutlets" : 1,
					"outlettype" : [ "" ],
					"patching_rect" : [ 1592.932739, 315.147705, 65.0, 22.0 ],
					"style" : "",
					"text" : "r DrPreset"
				}

			}
, 			{
				"box" : 				{
					"id" : "obj-86",
					"maxclass" : "newobj",
					"numinlets" : 1,
					"numoutlets" : 0,
					"patching_rect" : [ 299.26532, 509.709656, 59.0, 22.0 ],
					"style" : "",
					"text" : "s DrPitch"
				}

			}
, 			{
				"box" : 				{
					"fontface" : 1,
					"fontsize" : 20.0,
					"id" : "obj-69",
					"maxclass" : "comment",
					"numinlets" : 1,
					"numoutlets" : 0,
					"patching_rect" : [ 316.76532, 472.870239, 25.0, 29.0 ],
					"style" : "",
					"text" : "3"
				}

			}
, 			{
				"box" : 				{
					"fontface" : 1,
					"fontsize" : 20.0,
					"id" : "obj-66",
					"maxclass" : "comment",
					"numinlets" : 1,
					"numoutlets" : 0,
					"patching_rect" : [ 122.678314, 472.870239, 25.0, 29.0 ],
					"style" : "",
					"text" : "1"
				}

			}
, 			{
				"box" : 				{
					"bgcolor" : [ 1.0, 1.0, 1.0, 1.0 ],
					"bubble" : 1,
					"bubbletextmargin" : 12,
					"id" : "obj-38",
					"linecount" : 7,
					"maxclass" : "comment",
					"numinlets" : 1,
					"numoutlets" : 0,
					"patching_rect" : [ 503.26535, 395.709656, 269.0, 121.0 ],
					"style" : "velvet",
					"text" : "Slot      Description                   Values\n\n  1         play note                      0 or 1\n  2         set duration                0 - 5000\n  3         set pitch                48 is middle C\n  4         set waveform        1 - 5 or strings\n  5         set preset                      0 - 3"
				}

			}
, 			{
				"box" : 				{
					"fontsize" : 13.0,
					"id" : "obj-33",
					"linecount" : 10,
					"maxclass" : "comment",
					"numinlets" : 1,
					"numoutlets" : 0,
					"patching_rect" : [ 306.524689, 79.418716, 330.0, 156.0 ],
					"style" : "",
					"text" : "When you open this patch you need to do two things:\n    1) Choose the file \"readme.txt\"\n    2) Click on the X box to start filewatch\n\nWith the above settings, when you run the DrRacket program the data in this patch will be updated. The loadbang in the upperleft corner works so that the above instructions are executed upon opening this patch. But I haven't got it working consistently yet so until then this is my working patch."
				}

			}
, 			{
				"box" : 				{
					"fontface" : 1,
					"fontsize" : 20.0,
					"id" : "obj-76",
					"maxclass" : "comment",
					"numinlets" : 1,
					"numoutlets" : 0,
					"patching_rect" : [ 181.421509, 40.347229, 480.0, 29.0 ],
					"style" : "",
					"text" : "Import readthis.txt when changes are made to it"
				}

			}
, 			{
				"box" : 				{
					"fontface" : 1,
					"fontsize" : 20.0,
					"id" : "obj-64",
					"maxclass" : "comment",
					"numinlets" : 1,
					"numoutlets" : 0,
					"patching_rect" : [ 1530.031494, 40.347229, 106.436493, 29.0 ],
					"style" : "",
					"text" : "Amplitude"
				}

			}
, 			{
				"box" : 				{
					"id" : "obj-51",
					"maxclass" : "newobj",
					"numinlets" : 2,
					"numoutlets" : 2,
					"outlettype" : [ "signal", "bang" ],
					"patching_rect" : [ 1577.266113, 282.127991, 36.0, 22.0 ],
					"style" : "",
					"text" : "line~"
				}

			}
, 			{
				"box" : 				{
					"addpoints" : [ 0.0, 0.0, 0, 4.764558, 1.0, 0, 375.300272, 0.213271, 0, 777.085987, 0.025035, 0, 1000.0, 0.0, 0 ],
					"clicksustain" : 0,
					"id" : "obj-112",
					"maxclass" : "function",
					"numinlets" : 1,
					"numoutlets" : 4,
					"outlettype" : [ "float", "", "", "bang" ],
					"parameter_enable" : 0,
					"patching_rect" : [ 1504.932739, 166.128006, 236.0, 110.0 ],
					"style" : ""
				}

			}
, 			{
				"box" : 				{
					"id" : "obj-20",
					"maxclass" : "meter~",
					"numinlets" : 1,
					"numoutlets" : 1,
					"outlettype" : [ "float" ],
					"patching_rect" : [ 1546.932739, 336.564514, 19.0, 150.0 ],
					"presentation" : 1,
					"presentation_rect" : [ 809.412476, 265.194092, 19.0, 161.47226 ],
					"style" : ""
				}

			}
, 			{
				"box" : 				{
					"fontname" : "Arial",
					"fontsize" : 12.0,
					"id" : "obj-65",
					"maxclass" : "newobj",
					"numinlets" : 0,
					"numoutlets" : 1,
					"outlettype" : [ "" ],
					"patching_rect" : [ 1438.932739, 264.732208, 37.0, 22.0 ],
					"style" : "",
					"text" : "r sub"
				}

			}
, 			{
				"box" : 				{
					"fontname" : "Arial",
					"fontsize" : 12.0,
					"id" : "obj-185",
					"maxclass" : "textedit",
					"numinlets" : 1,
					"numoutlets" : 4,
					"outlettype" : [ "", "int", "", "" ],
					"parameter_enable" : 0,
					"patching_rect" : [ 1592.932739, 453.96637, 148.0, 61.664764 ],
					"presentation" : 1,
					"presentation_rect" : [ 636.612549, 333.266388, 101.0, 81.563843 ],
					"style" : "",
					"text" : "synth guitar"
				}

			}
, 			{
				"box" : 				{
					"id" : "obj-28",
					"interpinlet" : 1,
					"maxclass" : "gain~",
					"numinlets" : 2,
					"numoutlets" : 2,
					"outlettype" : [ "signal", "int" ],
					"parameter_enable" : 0,
					"patching_rect" : [ 1504.932739, 336.564514, 42.0, 150.0 ],
					"presentation" : 1,
					"presentation_rect" : [ 767.412476, 265.194092, 42.0, 161.47226 ],
					"style" : ""
				}

			}
, 			{
				"box" : 				{
					"fontname" : "Arial",
					"fontsize" : 12.0,
					"id" : "obj-29",
					"maxclass" : "newobj",
					"numinlets" : 2,
					"numoutlets" : 1,
					"outlettype" : [ "signal" ],
					"patching_rect" : [ 1504.932739, 308.394531, 32.5, 22.0 ],
					"style" : "",
					"text" : "*~"
				}

			}
, 			{
				"box" : 				{
					"id" : "obj-32",
					"maxclass" : "ezdac~",
					"numinlets" : 2,
					"numoutlets" : 0,
					"patching_rect" : [ 1504.932739, 495.728271, 61.664764, 61.664764 ],
					"presentation" : 1,
					"presentation_rect" : [ 767.412476, 446.427429, 61.0, 61.0 ],
					"style" : ""
				}

			}
, 			{
				"box" : 				{
					"fontface" : 1,
					"fontsize" : 14.0,
					"id" : "obj-99",
					"maxclass" : "comment",
					"numinlets" : 1,
					"numoutlets" : 0,
					"patching_rect" : [ 1489.243896, 656.760315, 145.006592, 23.0 ],
					"style" : "",
					"text" : "Frequency Envelope"
				}

			}
, 			{
				"box" : 				{
					"fontface" : 1,
					"fontsize" : 20.0,
					"id" : "obj-89",
					"maxclass" : "comment",
					"numinlets" : 1,
					"numoutlets" : 0,
					"patching_rect" : [ 1221.247192, 578.060181, 213.0, 29.0 ],
					"style" : "",
					"text" : "Subractive Synthesis"
				}

			}
, 			{
				"box" : 				{
					"id" : "obj-82",
					"linecount" : 2,
					"maxclass" : "comment",
					"numinlets" : 1,
					"numoutlets" : 0,
					"patching_rect" : [ 1302.341919, 695.626465, 66.764923, 34.0 ],
					"style" : "",
					"text" : "Fequency Floor"
				}

			}
, 			{
				"box" : 				{
					"id" : "obj-81",
					"linecount" : 2,
					"maxclass" : "comment",
					"numinlets" : 1,
					"numoutlets" : 0,
					"patching_rect" : [ 1302.341919, 624.724304, 69.0, 34.0 ],
					"style" : "",
					"text" : "Frequency Multiplier"
				}

			}
, 			{
				"box" : 				{
					"id" : "obj-31",
					"maxclass" : "newobj",
					"numinlets" : 2,
					"numoutlets" : 1,
					"outlettype" : [ "signal" ],
					"patching_rect" : [ 283.755981, 775.039856, 68.0, 22.0 ],
					"style" : "",
					"text" : "cycle~ 220"
				}

			}
, 			{
				"box" : 				{
					"fontname" : "Arial",
					"fontsize" : 12.0,
					"id" : "obj-26",
					"maxclass" : "newobj",
					"numinlets" : 2,
					"numoutlets" : 1,
					"outlettype" : [ "signal" ],
					"patching_rect" : [ 1103.313965, 800.082031, 36.0, 22.0 ],
					"style" : "",
					"text" : "*~ 5."
				}

			}
, 			{
				"box" : 				{
					"fontname" : "Arial",
					"fontsize" : 12.0,
					"format" : 6,
					"id" : "obj-27",
					"maxclass" : "flonum",
					"numinlets" : 1,
					"numoutlets" : 2,
					"outlettype" : [ "", "bang" ],
					"parameter_enable" : 0,
					"patching_rect" : [ 1120.313965, 772.742432, 41.0, 22.0 ],
					"style" : ""
				}

			}
, 			{
				"box" : 				{
					"fontname" : "Arial",
					"fontsize" : 12.0,
					"id" : "obj-25",
					"maxclass" : "newobj",
					"numinlets" : 2,
					"numoutlets" : 1,
					"outlettype" : [ "signal" ],
					"patching_rect" : [ 988.312988, 800.082031, 36.0, 22.0 ],
					"style" : "",
					"text" : "*~ 3."
				}

			}
, 			{
				"box" : 				{
					"fontname" : "Arial",
					"fontsize" : 12.0,
					"format" : 6,
					"id" : "obj-24",
					"maxclass" : "flonum",
					"numinlets" : 1,
					"numoutlets" : 2,
					"outlettype" : [ "", "bang" ],
					"parameter_enable" : 0,
					"patching_rect" : [ 1005.312988, 772.742432, 41.0, 22.0 ],
					"style" : ""
				}

			}
, 			{
				"box" : 				{
					"fontname" : "Arial",
					"fontsize" : 12.0,
					"id" : "obj-23",
					"maxclass" : "newobj",
					"numinlets" : 3,
					"numoutlets" : 4,
					"outlettype" : [ "signal", "signal", "signal", "signal" ],
					"patching_rect" : [ 1071.313965, 845.813171, 83.0, 22.0 ],
					"style" : "",
					"text" : "svf~ 4000 0.8"
				}

			}
, 			{
				"box" : 				{
					"fontname" : "Arial",
					"fontsize" : 12.0,
					"id" : "obj-21",
					"maxclass" : "newobj",
					"numinlets" : 3,
					"numoutlets" : 4,
					"outlettype" : [ "signal", "signal", "signal", "signal" ],
					"patching_rect" : [ 956.312988, 845.813171, 83.0, 22.0 ],
					"style" : "",
					"text" : "svf~ 4000 0.8"
				}

			}
, 			{
				"box" : 				{
					"fontname" : "Arial",
					"fontsize" : 12.0,
					"id" : "obj-17",
					"maxclass" : "newobj",
					"numinlets" : 1,
					"numoutlets" : 0,
					"patching_rect" : [ 1168.683472, 891.510803, 39.0, 22.0 ],
					"style" : "",
					"text" : "s sub"
				}

			}
, 			{
				"box" : 				{
					"fontname" : "Arial",
					"fontsize" : 12.0,
					"id" : "obj-9",
					"maxclass" : "newobj",
					"numinlets" : 0,
					"numoutlets" : 1,
					"outlettype" : [ "" ],
					"patching_rect" : [ 473.319153, 690.651917, 35.0, 22.0 ],
					"style" : "",
					"text" : "r FM"
				}

			}
, 			{
				"box" : 				{
					"bgcolor" : [ 0.248788, 0.249934, 0.242723, 1.0 ],
					"fontface" : 0,
					"fontname" : "Arial",
					"fontsize" : 11.0,
					"ft1" : 5.0,
					"id" : "obj-5",
					"maxclass" : "number~",
					"mode" : 2,
					"numinlets" : 2,
					"numoutlets" : 2,
					"outlettype" : [ "signal", "float" ],
					"patching_rect" : [ 1242.683472, 779.286865, 84.0, 21.0 ],
					"presentation" : 1,
					"presentation_rect" : [ 441.225037, 285.027435, 117.0, 21.0 ],
					"sig" : 0.0,
					"style" : "",
					"textcolor" : [ 1.0, 1.0, 1.0, 1.0 ]
				}

			}
, 			{
				"box" : 				{
					"fontname" : "Arial",
					"fontsize" : 12.0,
					"id" : "obj-43",
					"maxclass" : "newobj",
					"numinlets" : 2,
					"numoutlets" : 1,
					"outlettype" : [ "signal" ],
					"patching_rect" : [ 1201.119263, 655.724304, 56.0, 22.0 ],
					"style" : "",
					"text" : "*~ 2400."
				}

			}
, 			{
				"box" : 				{
					"fontname" : "Arial",
					"fontsize" : 12.0,
					"id" : "obj-42",
					"maxclass" : "newobj",
					"numinlets" : 2,
					"numoutlets" : 1,
					"outlettype" : [ "signal" ],
					"patching_rect" : [ 1201.119263, 728.626465, 56.0, 22.0 ],
					"style" : "",
					"text" : "+~ 100"
				}

			}
, 			{
				"box" : 				{
					"fontname" : "Arial",
					"fontsize" : 12.0,
					"id" : "obj-7",
					"maxclass" : "newobj",
					"numinlets" : 3,
					"numoutlets" : 4,
					"outlettype" : [ "signal", "signal", "signal", "signal" ],
					"patching_rect" : [ 839.094727, 845.813171, 83.0, 22.0 ],
					"style" : "",
					"text" : "svf~ 4000 0.8"
				}

			}
, 			{
				"box" : 				{
					"fontname" : "Arial",
					"fontsize" : 12.0,
					"id" : "obj-34",
					"maxclass" : "newobj",
					"numinlets" : 7,
					"numoutlets" : 1,
					"outlettype" : [ "signal" ],
					"patching_rect" : [ 141.678314, 855.944397, 82.0, 22.0 ],
					"style" : "",
					"text" : "selector~ 6"
				}

			}
, 			{
				"box" : 				{
					"fontname" : "Arial",
					"fontsize" : 13.0,
					"id" : "obj-61",
					"maxclass" : "newobj",
					"numinlets" : 3,
					"numoutlets" : 1,
					"outlettype" : [ "signal" ],
					"patching_rect" : [ 488.809753, 775.039856, 94.0, 23.0 ],
					"style" : "",
					"text" : "rect~ 220 0.25"
				}

			}
, 			{
				"box" : 				{
					"fontname" : "Arial",
					"fontsize" : 13.0,
					"id" : "obj-56",
					"maxclass" : "newobj",
					"numinlets" : 3,
					"numoutlets" : 1,
					"outlettype" : [ "signal" ],
					"patching_rect" : [ 432.809753, 775.039856, 51.0, 23.0 ],
					"style" : "",
					"text" : "tri~ 0.5"
				}

			}
, 			{
				"box" : 				{
					"fontname" : "Arial",
					"fontsize" : 13.0,
					"id" : "obj-30",
					"maxclass" : "newobj",
					"numinlets" : 2,
					"numoutlets" : 1,
					"outlettype" : [ "signal" ],
					"patching_rect" : [ 356.681946, 775.039856, 72.0, 23.0 ],
					"style" : "",
					"text" : "saw~ 440."
				}

			}
, 			{
				"box" : 				{
					"fontname" : "Arial",
					"fontsize" : 12.0,
					"id" : "obj-11",
					"maxclass" : "newobj",
					"numinlets" : 1,
					"numoutlets" : 1,
					"outlettype" : [ "signal" ],
					"patching_rect" : [ 236.88266, 775.039856, 40.0, 22.0 ],
					"style" : "",
					"text" : "pink~"
				}

			}
, 			{
				"box" : 				{
					"fontname" : "Arial",
					"fontsize" : 12.0,
					"id" : "obj-8",
					"maxclass" : "newobj",
					"numinlets" : 1,
					"numoutlets" : 1,
					"outlettype" : [ "signal" ],
					"patching_rect" : [ 186.38266, 775.039856, 46.0, 22.0 ],
					"style" : "",
					"text" : "noise~"
				}

			}
, 			{
				"box" : 				{
					"addpoints" : [ 0.0, 0.646405, 0, 21.133423, 1.0, 0, 940.77628, 0.916993, 0, 1000.0, 0.0, 0 ],
					"bgcolor" : [ 0.248788, 0.249934, 0.242723, 1.0 ],
					"clicksustain" : 0,
					"id" : "obj-12",
					"linecolor" : [ 1.0, 1.0, 1.0, 1.0 ],
					"maxclass" : "function",
					"numinlets" : 1,
					"numoutlets" : 4,
					"outlettype" : [ "float", "", "", "bang" ],
					"parameter_enable" : 0,
					"patching_rect" : [ 1398.247192, 772.79303, 236.0, 110.0 ],
					"presentation" : 1,
					"presentation_rect" : [ 91.937515, 211.99411, 296.549988, 154.999969 ],
					"style" : ""
				}

			}
, 			{
				"box" : 				{
					"fontname" : "Arial",
					"fontsize" : 12.0,
					"id" : "obj-22",
					"maxclass" : "newobj",
					"numinlets" : 2,
					"numoutlets" : 2,
					"outlettype" : [ "signal", "bang" ],
					"patching_rect" : [ 1398.247192, 891.510803, 36.0, 22.0 ],
					"style" : "",
					"text" : "line~"
				}

			}
, 			{
				"box" : 				{
					"id" : "obj-2",
					"maxclass" : "newobj",
					"numinlets" : 1,
					"numoutlets" : 6,
					"outlettype" : [ "int", "int", "int", "int", "int", "int" ],
					"patching_rect" : [ 203.015335, 399.073059, 109.0, 22.0 ],
					"style" : "",
					"text" : "unpack 1 1 1 1 1 1"
				}

			}
, 			{
				"box" : 				{
					"bubble" : 1,
					"fontname" : "Arial",
					"fontsize" : 13.0,
					"id" : "obj-4",
					"maxclass" : "comment",
					"numinlets" : 1,
					"numoutlets" : 0,
					"patching_rect" : [ 364.431946, 259.885559, 111.0, 25.0 ],
					"style" : "",
					"text" : "read file"
				}

			}
, 			{
				"box" : 				{
					"fontname" : "Arial",
					"fontsize" : 13.0,
					"id" : "obj-6",
					"maxclass" : "message",
					"numinlets" : 2,
					"numoutlets" : 1,
					"outlettype" : [ "" ],
					"patching_rect" : [ 264.755951, 337.727966, 32.5, 23.0 ],
					"style" : "",
					"text" : "set"
				}

			}
, 			{
				"box" : 				{
					"bubble" : 1,
					"bubbleside" : 3,
					"fontname" : "Arial",
					"fontsize" : 13.0,
					"id" : "obj-10",
					"maxclass" : "comment",
					"numinlets" : 1,
					"numoutlets" : 0,
					"patching_rect" : [ 27.554169, 259.885559, 111.0, 25.0 ],
					"style" : "",
					"text" : "output all lines"
				}

			}
, 			{
				"box" : 				{
					"fontname" : "Arial",
					"fontsize" : 13.0,
					"id" : "obj-13",
					"maxclass" : "message",
					"numinlets" : 2,
					"numoutlets" : 1,
					"outlettype" : [ "" ],
					"patching_rect" : [ 141.678314, 259.885559, 44.0, 23.0 ],
					"style" : "",
					"text" : "dump"
				}

			}
, 			{
				"box" : 				{
					"fontname" : "Arial",
					"fontsize" : 13.0,
					"id" : "obj-36",
					"maxclass" : "message",
					"numinlets" : 2,
					"numoutlets" : 1,
					"outlettype" : [ "" ],
					"patching_rect" : [ 264.755951, 368.00293, 160.0, 23.0 ],
					"style" : "",
					"text" : "0 1000 48 3 0 64"
				}

			}
, 			{
				"box" : 				{
					"fontname" : "Arial",
					"fontsize" : 13.0,
					"id" : "obj-39",
					"maxclass" : "newobj",
					"numinlets" : 1,
					"numoutlets" : 3,
					"outlettype" : [ "", "bang", "int" ],
					"patching_rect" : [ 203.015335, 304.885559, 99.0, 23.0 ],
					"style" : "",
					"text" : "text readthis.txt"
				}

			}
 ],
		"lines" : [ 			{
				"patchline" : 				{
					"destination" : [ "obj-39", 0 ],
					"disabled" : 0,
					"hidden" : 0,
					"source" : [ "obj-1", 0 ]
				}

			}
, 			{
				"patchline" : 				{
					"destination" : [ "obj-43", 1 ],
					"disabled" : 0,
					"hidden" : 0,
					"source" : [ "obj-101", 0 ]
				}

			}
, 			{
				"patchline" : 				{
					"destination" : [ "obj-86", 0 ],
					"disabled" : 0,
					"hidden" : 0,
					"source" : [ "obj-103", 0 ]
				}

			}
, 			{
				"patchline" : 				{
					"destination" : [ "obj-34", 0 ],
					"disabled" : 0,
					"hidden" : 0,
					"source" : [ "obj-104", 0 ]
				}

			}
, 			{
				"patchline" : 				{
					"destination" : [ "obj-85", 0 ],
					"disabled" : 0,
					"hidden" : 0,
					"source" : [ "obj-107", 0 ]
				}

			}
, 			{
				"patchline" : 				{
					"destination" : [ "obj-42", 1 ],
					"disabled" : 0,
					"hidden" : 0,
					"source" : [ "obj-108", 0 ]
				}

			}
, 			{
				"patchline" : 				{
					"destination" : [ "obj-68", 0 ],
					"disabled" : 0,
					"hidden" : 0,
					"source" : [ "obj-109", 0 ]
				}

			}
, 			{
				"patchline" : 				{
					"destination" : [ "obj-34", 2 ],
					"disabled" : 0,
					"hidden" : 0,
					"midpoints" : [ 246.38266, 819.666167, 172.178314, 819.666167 ],
					"source" : [ "obj-11", 0 ]
				}

			}
, 			{
				"patchline" : 				{
					"destination" : [ "obj-154", 0 ],
					"disabled" : 0,
					"hidden" : 0,
					"source" : [ "obj-111", 0 ]
				}

			}
, 			{
				"patchline" : 				{
					"destination" : [ "obj-47", 0 ],
					"disabled" : 0,
					"hidden" : 0,
					"source" : [ "obj-111", 0 ]
				}

			}
, 			{
				"patchline" : 				{
					"destination" : [ "obj-51", 0 ],
					"disabled" : 0,
					"hidden" : 0,
					"source" : [ "obj-112", 1 ]
				}

			}
, 			{
				"patchline" : 				{
					"destination" : [ "obj-84", 0 ],
					"disabled" : 0,
					"hidden" : 0,
					"source" : [ "obj-119", 0 ]
				}

			}
, 			{
				"patchline" : 				{
					"destination" : [ "obj-22", 0 ],
					"disabled" : 0,
					"hidden" : 0,
					"source" : [ "obj-12", 1 ]
				}

			}
, 			{
				"patchline" : 				{
					"destination" : [ "obj-79", 0 ],
					"disabled" : 0,
					"hidden" : 0,
					"source" : [ "obj-120", 0 ]
				}

			}
, 			{
				"patchline" : 				{
					"destination" : [ "obj-129", 0 ],
					"disabled" : 0,
					"hidden" : 0,
					"source" : [ "obj-126", 0 ]
				}

			}
, 			{
				"patchline" : 				{
					"destination" : [ "obj-21", 0 ],
					"disabled" : 0,
					"hidden" : 0,
					"midpoints" : [ 754.594727, 834.668274, 965.812988, 834.668274 ],
					"source" : [ "obj-128", 0 ]
				}

			}
, 			{
				"patchline" : 				{
					"destination" : [ "obj-23", 0 ],
					"disabled" : 0,
					"hidden" : 0,
					"midpoints" : [ 754.594727, 828.668274, 1080.813965, 828.668274 ],
					"source" : [ "obj-128", 0 ]
				}

			}
, 			{
				"patchline" : 				{
					"destination" : [ "obj-7", 0 ],
					"disabled" : 0,
					"hidden" : 0,
					"midpoints" : [ 754.594727, 838.668274, 848.594727, 838.668274 ],
					"source" : [ "obj-128", 0 ]
				}

			}
, 			{
				"patchline" : 				{
					"destination" : [ "obj-58", 0 ],
					"disabled" : 0,
					"hidden" : 0,
					"source" : [ "obj-129", 1 ]
				}

			}
, 			{
				"patchline" : 				{
					"destination" : [ "obj-39", 0 ],
					"disabled" : 0,
					"hidden" : 0,
					"source" : [ "obj-13", 0 ]
				}

			}
, 			{
				"patchline" : 				{
					"destination" : [ "obj-119", 0 ],
					"disabled" : 0,
					"hidden" : 0,
					"source" : [ "obj-141", 0 ]
				}

			}
, 			{
				"patchline" : 				{
					"destination" : [ "obj-120", 0 ],
					"disabled" : 0,
					"hidden" : 0,
					"source" : [ "obj-142", 0 ]
				}

			}
, 			{
				"patchline" : 				{
					"destination" : [ "obj-12", 0 ],
					"disabled" : 0,
					"hidden" : 0,
					"source" : [ "obj-144", 0 ]
				}

			}
, 			{
				"patchline" : 				{
					"destination" : [ "obj-144", 0 ],
					"disabled" : 0,
					"hidden" : 0,
					"source" : [ "obj-145", 0 ]
				}

			}
, 			{
				"patchline" : 				{
					"destination" : [ "obj-112", 0 ],
					"disabled" : 0,
					"hidden" : 0,
					"source" : [ "obj-147", 0 ]
				}

			}
, 			{
				"patchline" : 				{
					"destination" : [ "obj-147", 0 ],
					"disabled" : 0,
					"hidden" : 0,
					"source" : [ "obj-148", 0 ]
				}

			}
, 			{
				"patchline" : 				{
					"destination" : [ "obj-155", 0 ],
					"disabled" : 0,
					"hidden" : 0,
					"source" : [ "obj-154", 0 ]
				}

			}
, 			{
				"patchline" : 				{
					"destination" : [ "obj-156", 1 ],
					"disabled" : 0,
					"hidden" : 0,
					"source" : [ "obj-155", 0 ]
				}

			}
, 			{
				"patchline" : 				{
					"destination" : [ "obj-125", 0 ],
					"disabled" : 0,
					"hidden" : 0,
					"source" : [ "obj-156", 0 ]
				}

			}
, 			{
				"patchline" : 				{
					"destination" : [ "obj-98", 0 ],
					"disabled" : 0,
					"hidden" : 0,
					"source" : [ "obj-156", 0 ]
				}

			}
, 			{
				"patchline" : 				{
					"destination" : [ "obj-71", 0 ],
					"disabled" : 0,
					"hidden" : 0,
					"source" : [ "obj-16", 0 ]
				}

			}
, 			{
				"patchline" : 				{
					"destination" : [ "obj-167", 0 ],
					"disabled" : 0,
					"hidden" : 0,
					"midpoints" : [ 810.671509, 253.597847, 725.453247, 253.597847 ],
					"source" : [ "obj-168", 0 ]
				}

			}
, 			{
				"patchline" : 				{
					"destination" : [ "obj-78", 0 ],
					"disabled" : 0,
					"hidden" : 0,
					"source" : [ "obj-168", 0 ]
				}

			}
, 			{
				"patchline" : 				{
					"destination" : [ "obj-168", 0 ],
					"disabled" : 0,
					"hidden" : 0,
					"source" : [ "obj-170", 0 ]
				}

			}
, 			{
				"patchline" : 				{
					"destination" : [ "obj-148", 0 ],
					"disabled" : 0,
					"hidden" : 0,
					"source" : [ "obj-178", 0 ]
				}

			}
, 			{
				"patchline" : 				{
					"destination" : [ "obj-145", 0 ],
					"disabled" : 0,
					"hidden" : 0,
					"source" : [ "obj-179", 0 ]
				}

			}
, 			{
				"patchline" : 				{
					"destination" : [ "obj-47", 1 ],
					"disabled" : 0,
					"hidden" : 0,
					"source" : [ "obj-18", 0 ]
				}

			}
, 			{
				"patchline" : 				{
					"destination" : [ "obj-103", 0 ],
					"disabled" : 0,
					"hidden" : 0,
					"midpoints" : [ 266.515335, 435.357849, 308.76532, 435.357849 ],
					"source" : [ "obj-2", 3 ]
				}

			}
, 			{
				"patchline" : 				{
					"destination" : [ "obj-16", 0 ],
					"disabled" : 0,
					"hidden" : 0,
					"midpoints" : [ 230.515335, 426.357849, 160.678314, 426.357849 ],
					"source" : [ "obj-2", 1 ]
				}

			}
, 			{
				"patchline" : 				{
					"destination" : [ "obj-35", 0 ],
					"disabled" : 0,
					"hidden" : 0,
					"midpoints" : [ 302.515335, 425.357849, 453.76535, 425.357849 ],
					"source" : [ "obj-2", 5 ]
				}

			}
, 			{
				"patchline" : 				{
					"destination" : [ "obj-41", 0 ],
					"disabled" : 0,
					"hidden" : 0,
					"source" : [ "obj-2", 2 ]
				}

			}
, 			{
				"patchline" : 				{
					"destination" : [ "obj-50", 0 ],
					"disabled" : 0,
					"hidden" : 0,
					"midpoints" : [ 284.515335, 430.357849, 378.76532, 430.357849 ],
					"source" : [ "obj-2", 4 ]
				}

			}
, 			{
				"patchline" : 				{
					"destination" : [ "obj-17", 0 ],
					"disabled" : 0,
					"hidden" : 0,
					"source" : [ "obj-21", 2 ]
				}

			}
, 			{
				"patchline" : 				{
					"destination" : [ "obj-43", 0 ],
					"disabled" : 0,
					"hidden" : 0,
					"midpoints" : [ 1407.747192, 913.302368, 1382.14148, 913.302368, 1382.14148, 615.302368, 1210.619263, 615.302368 ],
					"source" : [ "obj-22", 0 ]
				}

			}
, 			{
				"patchline" : 				{
					"destination" : [ "obj-17", 0 ],
					"disabled" : 0,
					"hidden" : 0,
					"source" : [ "obj-23", 2 ]
				}

			}
, 			{
				"patchline" : 				{
					"destination" : [ "obj-25", 1 ],
					"disabled" : 0,
					"hidden" : 0,
					"source" : [ "obj-24", 0 ]
				}

			}
, 			{
				"patchline" : 				{
					"destination" : [ "obj-21", 1 ],
					"disabled" : 0,
					"hidden" : 0,
					"source" : [ "obj-25", 0 ]
				}

			}
, 			{
				"patchline" : 				{
					"destination" : [ "obj-23", 1 ],
					"disabled" : 0,
					"hidden" : 0,
					"source" : [ "obj-26", 0 ]
				}

			}
, 			{
				"patchline" : 				{
					"destination" : [ "obj-26", 1 ],
					"disabled" : 0,
					"hidden" : 0,
					"source" : [ "obj-27", 0 ]
				}

			}
, 			{
				"patchline" : 				{
					"destination" : [ "obj-20", 0 ],
					"disabled" : 0,
					"hidden" : 0,
					"midpoints" : [ 1514.432739, 492.752773, 1572.932739, 492.752773, 1572.932739, 330.752773, 1556.432739, 330.752773 ],
					"source" : [ "obj-28", 0 ]
				}

			}
, 			{
				"patchline" : 				{
					"destination" : [ "obj-32", 1 ],
					"disabled" : 0,
					"hidden" : 0,
					"source" : [ "obj-28", 0 ]
				}

			}
, 			{
				"patchline" : 				{
					"destination" : [ "obj-32", 0 ],
					"disabled" : 0,
					"hidden" : 0,
					"source" : [ "obj-28", 0 ]
				}

			}
, 			{
				"patchline" : 				{
					"destination" : [ "obj-28", 0 ],
					"disabled" : 0,
					"hidden" : 0,
					"source" : [ "obj-29", 0 ]
				}

			}
, 			{
				"patchline" : 				{
					"destination" : [ "obj-34", 4 ],
					"disabled" : 0,
					"hidden" : 0,
					"midpoints" : [ 366.181946, 833.166167, 193.178314, 833.166167 ],
					"source" : [ "obj-30", 0 ]
				}

			}
, 			{
				"patchline" : 				{
					"destination" : [ "obj-34", 3 ],
					"disabled" : 0,
					"hidden" : 0,
					"midpoints" : [ 293.255981, 826.166167, 182.678314, 826.166167 ],
					"source" : [ "obj-31", 0 ]
				}

			}
, 			{
				"patchline" : 				{
					"destination" : [ "obj-127", 0 ],
					"disabled" : 0,
					"hidden" : 0,
					"source" : [ "obj-34", 0 ]
				}

			}
, 			{
				"patchline" : 				{
					"destination" : [ "obj-162", 0 ],
					"disabled" : 0,
					"hidden" : 0,
					"source" : [ "obj-34", 0 ]
				}

			}
, 			{
				"patchline" : 				{
					"destination" : [ "obj-37", 0 ],
					"disabled" : 0,
					"hidden" : 0,
					"source" : [ "obj-35", 0 ]
				}

			}
, 			{
				"patchline" : 				{
					"destination" : [ "obj-2", 0 ],
					"disabled" : 0,
					"hidden" : 0,
					"source" : [ "obj-39", 0 ]
				}

			}
, 			{
				"patchline" : 				{
					"destination" : [ "obj-36", 0 ],
					"disabled" : 0,
					"hidden" : 0,
					"source" : [ "obj-39", 0 ]
				}

			}
, 			{
				"patchline" : 				{
					"destination" : [ "obj-44", 0 ],
					"disabled" : 0,
					"hidden" : 0,
					"source" : [ "obj-41", 0 ]
				}

			}
, 			{
				"patchline" : 				{
					"destination" : [ "obj-25", 0 ],
					"disabled" : 0,
					"hidden" : 0,
					"midpoints" : [ 1210.619263, 759.302368, 997.812988, 759.302368 ],
					"source" : [ "obj-42", 0 ]
				}

			}
, 			{
				"patchline" : 				{
					"destination" : [ "obj-26", 0 ],
					"disabled" : 0,
					"hidden" : 0,
					"midpoints" : [ 1210.619263, 763.302368, 1112.813965, 763.302368 ],
					"source" : [ "obj-42", 0 ]
				}

			}
, 			{
				"patchline" : 				{
					"destination" : [ "obj-5", 0 ],
					"disabled" : 0,
					"hidden" : 0,
					"source" : [ "obj-42", 0 ]
				}

			}
, 			{
				"patchline" : 				{
					"destination" : [ "obj-7", 1 ],
					"disabled" : 0,
					"hidden" : 0,
					"midpoints" : [ 1210.619263, 754.302368, 880.594727, 754.302368 ],
					"source" : [ "obj-42", 0 ]
				}

			}
, 			{
				"patchline" : 				{
					"destination" : [ "obj-42", 0 ],
					"disabled" : 0,
					"hidden" : 0,
					"source" : [ "obj-43", 0 ]
				}

			}
, 			{
				"patchline" : 				{
					"destination" : [ "obj-63", 0 ],
					"disabled" : 0,
					"hidden" : 0,
					"source" : [ "obj-43", 0 ]
				}

			}
, 			{
				"patchline" : 				{
					"destination" : [ "obj-170", 0 ],
					"disabled" : 0,
					"hidden" : 0,
					"source" : [ "obj-46", 0 ]
				}

			}
, 			{
				"patchline" : 				{
					"destination" : [ "obj-155", 1 ],
					"disabled" : 0,
					"hidden" : 0,
					"source" : [ "obj-47", 0 ]
				}

			}
, 			{
				"patchline" : 				{
					"destination" : [ "obj-18", 2 ],
					"disabled" : 0,
					"hidden" : 0,
					"midpoints" : [ 1052.841553, 527.276924, 1008.972656, 527.276924, 1008.972656, 443.276924, 990.672485, 443.276924 ],
					"source" : [ "obj-49", 0 ]
				}

			}
, 			{
				"patchline" : 				{
					"destination" : [ "obj-75", 0 ],
					"disabled" : 0,
					"hidden" : 0,
					"source" : [ "obj-50", 0 ]
				}

			}
, 			{
				"patchline" : 				{
					"destination" : [ "obj-29", 1 ],
					"disabled" : 0,
					"hidden" : 0,
					"source" : [ "obj-51", 0 ]
				}

			}
, 			{
				"patchline" : 				{
					"destination" : [ "obj-72", 0 ],
					"disabled" : 0,
					"hidden" : 0,
					"source" : [ "obj-52", 0 ]
				}

			}
, 			{
				"patchline" : 				{
					"destination" : [ "obj-126", 0 ],
					"disabled" : 0,
					"hidden" : 0,
					"source" : [ "obj-54", 1 ]
				}

			}
, 			{
				"patchline" : 				{
					"destination" : [ "obj-67", 0 ],
					"disabled" : 0,
					"hidden" : 0,
					"source" : [ "obj-54", 0 ]
				}

			}
, 			{
				"patchline" : 				{
					"destination" : [ "obj-59", 0 ],
					"disabled" : 0,
					"hidden" : 0,
					"source" : [ "obj-55", 0 ]
				}

			}
, 			{
				"patchline" : 				{
					"destination" : [ "obj-34", 5 ],
					"disabled" : 0,
					"hidden" : 0,
					"midpoints" : [ 442.309753, 839.666167, 203.678314, 839.666167 ],
					"source" : [ "obj-56", 0 ]
				}

			}
, 			{
				"patchline" : 				{
					"destination" : [ "obj-96", 0 ],
					"disabled" : 0,
					"hidden" : 0,
					"source" : [ "obj-57", 0 ]
				}

			}
, 			{
				"patchline" : 				{
					"destination" : [ "obj-48", 0 ],
					"disabled" : 0,
					"hidden" : 0,
					"source" : [ "obj-58", 0 ]
				}

			}
, 			{
				"patchline" : 				{
					"destination" : [ "obj-57", 0 ],
					"disabled" : 0,
					"hidden" : 0,
					"source" : [ "obj-59", 0 ]
				}

			}
, 			{
				"patchline" : 				{
					"destination" : [ "obj-36", 0 ],
					"disabled" : 0,
					"hidden" : 0,
					"source" : [ "obj-6", 0 ]
				}

			}
, 			{
				"patchline" : 				{
					"destination" : [ "obj-73", 0 ],
					"disabled" : 0,
					"hidden" : 0,
					"source" : [ "obj-60", 0 ]
				}

			}
, 			{
				"patchline" : 				{
					"destination" : [ "obj-34", 6 ],
					"disabled" : 0,
					"hidden" : 0,
					"midpoints" : [ 498.309753, 845.666167, 214.178314, 845.666167 ],
					"source" : [ "obj-61", 0 ]
				}

			}
, 			{
				"patchline" : 				{
					"destination" : [ "obj-29", 0 ],
					"disabled" : 0,
					"hidden" : 0,
					"source" : [ "obj-65", 0 ]
				}

			}
, 			{
				"patchline" : 				{
					"destination" : [ "obj-1", 0 ],
					"disabled" : 0,
					"hidden" : 0,
					"source" : [ "obj-68", 0 ]
				}

			}
, 			{
				"patchline" : 				{
					"destination" : [ "obj-114", 0 ],
					"disabled" : 0,
					"hidden" : 0,
					"source" : [ "obj-68", 0 ]
				}

			}
, 			{
				"patchline" : 				{
					"destination" : [ "obj-13", 0 ],
					"disabled" : 0,
					"hidden" : 0,
					"source" : [ "obj-68", 0 ]
				}

			}
, 			{
				"patchline" : 				{
					"destination" : [ "obj-17", 0 ],
					"disabled" : 0,
					"hidden" : 0,
					"source" : [ "obj-7", 2 ]
				}

			}
, 			{
				"patchline" : 				{
					"destination" : [ "obj-74", 0 ],
					"disabled" : 0,
					"hidden" : 0,
					"source" : [ "obj-70", 0 ]
				}

			}
, 			{
				"patchline" : 				{
					"destination" : [ "obj-53", 0 ],
					"disabled" : 0,
					"hidden" : 0,
					"source" : [ "obj-71", 0 ]
				}

			}
, 			{
				"patchline" : 				{
					"destination" : [ "obj-12", 0 ],
					"disabled" : 0,
					"hidden" : 0,
					"source" : [ "obj-72", 0 ]
				}

			}
, 			{
				"patchline" : 				{
					"destination" : [ "obj-96", 0 ],
					"disabled" : 0,
					"hidden" : 0,
					"source" : [ "obj-73", 0 ]
				}

			}
, 			{
				"patchline" : 				{
					"destination" : [ "obj-112", 0 ],
					"disabled" : 0,
					"hidden" : 0,
					"source" : [ "obj-74", 0 ]
				}

			}
, 			{
				"patchline" : 				{
					"destination" : [ "obj-111", 0 ],
					"disabled" : 0,
					"hidden" : 0,
					"source" : [ "obj-78", 0 ]
				}

			}
, 			{
				"patchline" : 				{
					"destination" : [ "obj-156", 0 ],
					"disabled" : 0,
					"hidden" : 0,
					"source" : [ "obj-78", 0 ]
				}

			}
, 			{
				"patchline" : 				{
					"destination" : [ "obj-18", 1 ],
					"disabled" : 0,
					"hidden" : 0,
					"source" : [ "obj-79", 0 ]
				}

			}
, 			{
				"patchline" : 				{
					"destination" : [ "obj-34", 1 ],
					"disabled" : 0,
					"hidden" : 0,
					"midpoints" : [ 195.88266, 815.666167, 161.678314, 815.666167 ],
					"source" : [ "obj-8", 0 ]
				}

			}
, 			{
				"patchline" : 				{
					"destination" : [ "obj-83", 0 ],
					"disabled" : 0,
					"hidden" : 0,
					"source" : [ "obj-80", 0 ]
				}

			}
, 			{
				"patchline" : 				{
					"destination" : [ "obj-18", 0 ],
					"disabled" : 0,
					"hidden" : 0,
					"midpoints" : [ 1049.727783, 340.324471, 939.672485, 340.324471 ],
					"source" : [ "obj-83", 0 ]
				}

			}
, 			{
				"patchline" : 				{
					"destination" : [ "obj-111", 1 ],
					"disabled" : 0,
					"hidden" : 0,
					"source" : [ "obj-84", 0 ]
				}

			}
, 			{
				"patchline" : 				{
					"destination" : [ "obj-15", 0 ],
					"disabled" : 0,
					"hidden" : 0,
					"source" : [ "obj-85", 0 ]
				}

			}
, 			{
				"patchline" : 				{
					"destination" : [ "obj-107", 0 ],
					"disabled" : 0,
					"hidden" : 0,
					"source" : [ "obj-87", 0 ]
				}

			}
, 			{
				"patchline" : 				{
					"destination" : [ "obj-11", 0 ],
					"disabled" : 0,
					"hidden" : 0,
					"midpoints" : [ 482.819153, 727.657288, 246.38266, 727.657288 ],
					"source" : [ "obj-9", 0 ]
				}

			}
, 			{
				"patchline" : 				{
					"destination" : [ "obj-30", 0 ],
					"disabled" : 0,
					"hidden" : 0,
					"midpoints" : [ 482.819153, 737.53897, 366.181946, 737.53897 ],
					"source" : [ "obj-9", 0 ]
				}

			}
, 			{
				"patchline" : 				{
					"destination" : [ "obj-31", 0 ],
					"disabled" : 0,
					"hidden" : 0,
					"midpoints" : [ 482.819153, 732.53897, 293.255981, 732.53897 ],
					"source" : [ "obj-9", 0 ]
				}

			}
, 			{
				"patchline" : 				{
					"destination" : [ "obj-56", 0 ],
					"disabled" : 0,
					"hidden" : 0,
					"midpoints" : [ 482.819153, 742.53897, 442.309753, 742.53897 ],
					"source" : [ "obj-9", 0 ]
				}

			}
, 			{
				"patchline" : 				{
					"destination" : [ "obj-61", 0 ],
					"disabled" : 0,
					"hidden" : 0,
					"midpoints" : [ 482.819153, 770.53897, 498.309753, 770.53897 ],
					"source" : [ "obj-9", 0 ]
				}

			}
, 			{
				"patchline" : 				{
					"destination" : [ "obj-8", 0 ],
					"disabled" : 0,
					"hidden" : 0,
					"midpoints" : [ 482.819153, 722.657288, 195.88266, 722.657288 ],
					"source" : [ "obj-9", 0 ]
				}

			}
, 			{
				"patchline" : 				{
					"destination" : [ "obj-104", 0 ],
					"disabled" : 0,
					"hidden" : 0,
					"source" : [ "obj-94", 0 ]
				}

			}
, 			{
				"patchline" : 				{
					"destination" : [ "obj-49", 0 ],
					"disabled" : 0,
					"hidden" : 0,
					"source" : [ "obj-96", 1 ]
				}

			}
, 			{
				"patchline" : 				{
					"destination" : [ "obj-68", 1 ],
					"disabled" : 0,
					"hidden" : 0,
					"source" : [ "obj-97", 0 ]
				}

			}
 ],
		"dependency_cache" : [  ],
		"autosave" : 0,
		"styles" : [ 			{
				"name" : "newobjYellow-1",
				"default" : 				{
					"accentcolor" : [ 0.82517, 0.78181, 0.059545, 1.0 ],
					"fontsize" : [ 12.059008 ]
				}
,
				"parentstyle" : "",
				"multi" : 0
			}
, 			{
				"name" : "numberGold-1",
				"default" : 				{
					"accentcolor" : [ 0.764706, 0.592157, 0.101961, 1.0 ]
				}
,
				"parentstyle" : "",
				"multi" : 0
			}
 ]
	}

}
